# Blender v3.4.1 OBJ File: 'Medieval_Hexagons_Export_1.0_WorldOrigin.blend'
# www.blender.org
mtllib horse_G.mtl
o horse_G
v 0.036519 0.413196 0.247559
v -0.036521 0.413196 0.247559
v -0.051669 0.177128 0.124484
v 0.051668 0.177127 0.124484
v 0.036519 0.413196 0.052520
v -0.036521 0.413196 0.052520
v 0.051668 0.177127 -0.124631
v -0.051669 0.177128 -0.124631
v -0.051669 0.177128 0.247559
v 0.051668 0.177127 0.247559
v 0.033066 0.197291 -0.298350
v -0.033066 0.197292 -0.298350
v -0.087732 -0.000000 0.166063
v 0.087731 -0.000001 0.166063
v 0.087731 -0.000000 -0.166210
v -0.087732 -0.000000 -0.166210
v -0.087732 -0.000000 0.231450
v 0.087731 -0.000001 0.231450
v 0.087731 -0.000000 -0.231591
v -0.087732 -0.000000 -0.231591
v -0.036521 0.413196 -0.104751
v 0.036519 0.413196 -0.104751
v 0.033066 0.342139 -0.228295
v -0.033066 0.342140 -0.228295
v 0.033066 0.271083 -0.247407
v -0.033066 0.271083 -0.247407
v -0.052910 0.162942 -0.084834
v 0.052909 0.162942 -0.084834
v 0.054004 0.150427 -0.000074
v -0.054005 0.150428 -0.000074
v 0.052909 0.162942 0.084687
v -0.052910 0.162942 0.084687
v 0.088020 0.180308 0.124484
v 0.116647 0.225137 0.148058
v 0.088020 0.180308 -0.124631
v 0.116494 0.226889 -0.147801
v -0.116649 0.225137 0.148058
v -0.088021 0.180308 0.124484
v -0.116495 0.226890 -0.147801
v -0.088021 0.180308 -0.124631
v -0.088021 0.180308 0.247559
v -0.120323 0.183134 0.215069
v 0.120322 0.183134 0.215069
v 0.088020 0.180308 0.247559
v -0.112186 -0.000000 0.189937
v -0.103787 -0.000000 0.166063
v 0.103785 -0.000001 0.166063
v 0.112185 -0.000001 0.189937
v 0.112185 -0.000000 -0.189421
v 0.103785 -0.000000 -0.166210
v -0.103787 -0.000000 -0.166210
v -0.112186 -0.000000 -0.189421
v -0.103786 -0.000000 0.231450
v -0.112186 -0.000000 0.208308
v 0.112185 -0.000001 0.208308
v 0.103785 -0.000001 0.231450
v 0.103785 -0.000000 -0.231591
v 0.112185 -0.000000 -0.208480
v -0.112186 -0.000000 -0.208480
v -0.103787 -0.000000 -0.231591
v -0.118874 0.199701 -0.071392
v -0.089262 0.166123 -0.084834
v -0.089262 0.166123 0.084687
v -0.118859 0.199871 0.077257
v -0.090357 0.153608 -0.000074
v -0.119826 0.188822 0.002962
v 0.118858 0.199871 0.077257
v 0.089261 0.166122 0.084687
v 0.089261 0.166122 -0.084834
v 0.118873 0.199701 -0.071392
v 0.090356 0.153608 -0.000074
v 0.119825 0.188822 0.002962
v -0.101858 0.382175 0.215072
v -0.066479 0.416299 0.247559
v 0.101857 0.382175 0.215072
v 0.066478 0.416299 0.247559
v -0.120323 0.183134 -0.223420
v -0.088021 0.180308 -0.247408
v -0.103102 0.382175 0.052520
v -0.067368 0.416377 0.052520
v -0.069034 0.397337 -0.176079
v -0.104581 0.363070 -0.167286
v -0.103126 0.382175 -0.108078
v -0.067368 0.416377 -0.104751
v -0.073584 0.345320 -0.228295
v -0.108447 0.318887 -0.209914
v -0.079801 0.274263 -0.247407
v -0.113642 0.259501 -0.224424
v 0.088020 0.180308 -0.247408
v 0.120322 0.183134 -0.223420
v 0.103196 0.382175 0.052520
v 0.067367 0.416376 0.052520
v 0.067367 0.416376 -0.104751
v 0.103125 0.382175 -0.108078
v 0.104580 0.363070 -0.167286
v 0.069032 0.397337 -0.176079
v 0.108445 0.318886 -0.209914
v 0.073583 0.345320 -0.228295
v 0.113641 0.259501 -0.224424
v 0.079800 0.274263 -0.247407
v 0.036497 0.539383 0.348323
v 0.036497 0.393283 0.317861
v -0.036500 0.393283 0.317861
v -0.025606 0.363081 0.394738
v 0.025603 0.363081 0.394738
v 0.036497 0.486043 0.393765
v -0.036500 0.486043 0.393765
v 0.025603 0.411122 0.431118
v -0.025606 0.411122 0.431118
v 0.036497 0.605118 0.362028
v -0.036500 0.605118 0.362028
v 0.036508 0.507530 0.116971
v 0.036497 0.592152 0.267644
v 0.036500 0.571171 0.188301
v -0.036500 0.539383 0.348323
v -0.036500 0.592152 0.267644
v -0.036503 0.571171 0.188301
v -0.036510 0.507530 0.116971
v 0.033066 0.275626 -0.311547
v -0.033066 0.275627 -0.311547
v 0.033066 0.394156 -0.176079
v 0.033066 0.360078 -0.294365
v 0.033066 0.415787 -0.233262
v 0.033066 0.398699 -0.268393
v 0.033066 0.410577 -0.195623
v -0.033066 0.360079 -0.294365
v -0.033066 0.394157 -0.176079
v -0.033066 0.398699 -0.268393
v -0.033066 0.415787 -0.233262
v -0.033066 0.410577 -0.195623
v 0.033066 0.177127 -0.247408
v 0.033066 0.152783 -0.341916
v 0.033066 0.150408 -0.252526
v 0.033066 0.133388 -0.267104
v 0.033066 0.128269 -0.288921
v 0.033066 0.135829 -0.314656
v -0.033066 0.177128 -0.247408
v -0.033066 0.152783 -0.341916
v -0.033066 0.150408 -0.252526
v -0.033066 0.133388 -0.267104
v -0.033066 0.128269 -0.288921
v -0.033066 0.135829 -0.314656
vt 0.535301 0.836450
vt 0.535967 0.831194
vt 0.535976 0.840369
vt 0.532696 0.836240
vt 0.533783 0.854844
vt 0.532106 0.855669
vt 0.532106 0.831194
vt 0.535097 0.830471
vt 0.535097 0.830853
vt 0.535463 0.809190
vt 0.535463 0.809190
vt 0.534922 0.890084
vt 0.534922 0.890466
vt 0.535550 0.888179
vt 0.535550 0.887797
vt 0.535301 0.836450
vt 0.535473 0.852812
vt 0.535848 0.847503
vt 0.531820 0.843209
vt 0.531820 0.814846
vt 0.531820 0.815229
vt 0.531820 0.843581
vt 0.533783 0.890084
vt 0.533783 0.890466
vt 0.535668 0.809190
vt 0.535463 0.809190
vt 0.535463 0.809190
vt 0.536039 0.809190
vt 0.536039 0.809190
vt 0.535835 0.809190
vt 0.536178 0.830471
vt 0.536178 0.830854
vt 0.533319 0.833205
vt 0.534747 0.782274
vt 0.535097 0.783978
vt 0.535097 0.783596
vt 0.534747 0.781892
vt 0.532903 0.783978
vt 0.533254 0.782274
vt 0.533254 0.781892
vt 0.532903 0.783596
vt 0.531820 0.843582
vt 0.531820 0.815228
vt 0.531820 0.814846
vt 0.531820 0.843209
vt 0.536178 0.830853
vt 0.536178 0.830471
vt 0.536039 0.809190
vt 0.536039 0.809190
vt 0.535097 0.830854
vt 0.535097 0.830471
vt 0.532903 0.783596
vt 0.533254 0.781892
vt 0.533254 0.782275
vt 0.532903 0.783979
vt 0.536010 0.850679
vt 0.536010 0.850297
vt 0.536178 0.842142
vt 0.536178 0.841759
vt 0.534000 0.780771
vt 0.534000 0.780388
vt 0.533973 0.831877
vt 0.534000 0.780388
vt 0.534000 0.780771
vt 0.534747 0.781892
vt 0.534747 0.782275
vt 0.533783 0.890084
vt 0.533783 0.890466
vt 0.531820 0.890457
vt 0.531820 0.890084
vt 0.533783 0.854843
vt 0.534951 0.854810
vt 0.534628 0.833183
vt 0.533973 0.831876
vt 0.533319 0.833204
vt 0.598678 0.799221
vt 0.598678 0.810509
vt 0.599243 0.811055
vt 0.599127 0.801644
vt 0.536010 0.850679
vt 0.536010 0.850297
vt 0.536178 0.841759
vt 0.536178 0.842142
vt 0.598510 0.819047
vt 0.599092 0.821202
vt 0.535550 0.888179
vt 0.535550 0.887797
vt 0.534922 0.890084
vt 0.535967 0.831193
vt 0.535835 0.809190
vt 0.535668 0.809190
vt 0.535097 0.783596
vt 0.536178 0.799221
vt 0.535097 0.799221
vt 0.535463 0.777940
vt 0.536039 0.777940
vt 0.532327 0.809190
vt 0.532537 0.809190
vt 0.532537 0.809190
vt 0.531961 0.809190
vt 0.531961 0.809190
vt 0.532165 0.809190
vt 0.536178 0.783596
vt 0.536178 0.783596
vt 0.535097 0.783979
vt 0.536178 0.799221
vt 0.536039 0.777940
vt 0.535463 0.777940
vt 0.535097 0.799221
vt 0.532696 0.836240
vt 0.531820 0.799221
vt 0.532903 0.799221
vt 0.532537 0.777940
vt 0.531961 0.777940
vt 0.531820 0.783596
vt 0.531820 0.783596
vt 0.532537 0.809190
vt 0.532537 0.809190
vt 0.532327 0.809190
vt 0.532165 0.809190
vt 0.531961 0.809190
vt 0.531961 0.809190
vt 0.531820 0.799221
vt 0.531961 0.777940
vt 0.532537 0.777940
vt 0.532903 0.799221
vt 0.534922 0.890466
vt 0.532903 0.830853
vt 0.532903 0.830471
vt 0.532106 0.831193
vt 0.531961 0.793565
vt 0.531961 0.793565
vt 0.531820 0.890456
vt 0.531820 0.890084
vt 0.535976 0.840368
vt 0.531961 0.793565
vt 0.531961 0.793565
vt 0.535848 0.847503
vt 0.535473 0.852812
vt 0.534628 0.833184
vt 0.534951 0.854810
vt 0.532106 0.855668
vt 0.581833 0.871294
vt 0.581833 0.870469
vt 0.581833 0.874841
vt 0.581833 0.874831
vt 0.581833 0.846478
vt 0.581833 0.824815
vt 0.581833 0.824815
vt 0.581833 0.846818
vt 0.581833 0.824815
vt 0.581833 0.846479
vt 0.581833 0.846819
vt 0.581833 0.824815
vt 0.581833 0.846479
vt 0.581833 0.824815
vt 0.581833 0.824815
vt 0.581833 0.846819
vt 0.578287 0.777940
vt 0.578287 0.799604
vt 0.578287 0.804990
vt 0.578287 0.777940
vt 0.578287 0.777940
vt 0.578287 0.804990
vt 0.578287 0.799603
vt 0.578287 0.777940
vt 0.581833 0.824815
vt 0.581833 0.846478
vt 0.581833 0.846818
vt 0.581833 0.824815
vt 0.581833 0.868437
vt 0.581833 0.870435
vt 0.581833 0.874841
vt 0.581833 0.872554
vt 0.581833 0.870435
vt 0.581833 0.868437
vt 0.581833 0.872554
vt 0.581833 0.874841
vt 0.581833 0.863128
vt 0.581833 0.866304
vt 0.581833 0.863128
vt 0.581833 0.866304
vt 0.581833 0.855993
vt 0.581833 0.857767
vt 0.581833 0.855994
vt 0.581833 0.857767
vt 0.581833 0.874841
vt 0.581833 0.870468
vt 0.578287 0.797899
vt 0.578287 0.796396
vt 0.578287 0.800626
vt 0.578287 0.801933
vt 0.578287 0.797899
vt 0.578287 0.801954
vt 0.578287 0.797900
vt 0.578287 0.796396
vt 0.578287 0.800627
vt 0.578287 0.801955
vt 0.578287 0.797900
vt 0.578287 0.801934
vt 0.581833 0.871293
vt 0.581833 0.874832
vt 0.578287 0.805200
vt 0.578287 0.799603
vt 0.578287 0.777940
vt 0.578287 0.777940
vt 0.578287 0.805200
vt 0.578287 0.799604
vt 0.578287 0.777940
vt 0.578287 0.777940
vt 0.532903 0.830471
vt 0.532903 0.830854
vt 0.531820 0.811959
vt 0.531820 0.811959
vt 0.531201 0.809566
vt 0.531201 0.809566
vt 0.533783 0.858834
vt 0.533783 0.858834
vt 0.533154 0.900242
vt 0.533154 0.900242
vt 0.531643 0.880335
vt 0.530932 0.873995
vt 0.530812 0.881892
vt 0.531820 0.858834
vt 0.533154 0.868992
vt 0.532465 0.876302
vt 0.530932 0.873995
vt 0.530532 0.867586
vt 0.531201 0.856441
vt 0.530523 0.852813
vt 0.530523 0.852813
vt 0.530203 0.858585
vt 0.530203 0.858585
vt 0.530523 0.805938
vt 0.530523 0.805938
vt 0.530532 0.898836
vt 0.530532 0.898836
vt 0.530203 0.889835
vt 0.530203 0.889835
vt 0.530532 0.867586
vt 0.531201 0.856441
vt 0.530812 0.913142
vt 0.530812 0.913142
vt 0.531820 0.858834
vt 0.533154 0.868992
vt 0.531643 0.880335
vt 0.530812 0.881892
vt 0.532465 0.907552
vt 0.532465 0.907552
vt 0.531643 0.911585
vt 0.531643 0.911585
vt 0.532465 0.876302
vt 0.599092 0.868077
vt 0.599092 0.868077
vt 0.599243 0.826680
vt 0.599243 0.826680
vt 0.599127 0.817269
vt 0.599127 0.817269
vt 0.598863 0.872718
vt 0.598863 0.872718
vt 0.598510 0.819047
vt 0.598678 0.810509
vt 0.599243 0.811055
vt 0.599092 0.821202
vt 0.598678 0.799221
vt 0.599127 0.801644
vt 0.599510 0.811921
vt 0.599510 0.811921
vt 0.598554 0.874770
vt 0.598554 0.874770
vt 0.598222 0.874145
vt 0.598222 0.874145
vt 0.598050 0.840922
vt 0.598050 0.840922
vt 0.598863 0.825843
vt 0.598554 0.827895
vt 0.598222 0.827270
vt 0.598050 0.825297
vt 0.598554 0.827895
vt 0.598863 0.825843
vt 0.598222 0.827270
vt 0.598050 0.825297
vt 0.598678 0.814846
vt 0.598678 0.814846
vt 0.598723 0.811636
vt 0.598723 0.811636
vt 0.598852 0.809591
vt 0.598852 0.809591
vt 0.599044 0.808977
vt 0.599044 0.808977
vt 0.599270 0.809884
vt 0.599270 0.809884
vt 0.598723 0.796011
vt 0.598852 0.793966
vt 0.599044 0.793352
vt 0.599270 0.794259
vt 0.599510 0.796296
vt 0.598723 0.796011
vt 0.598852 0.793966
vt 0.599044 0.793352
vt 0.599270 0.794259
vt 0.599510 0.796296
vn 0.9978 0.0652 0.0095
vn 0.9993 0.0078 0.0368
vn 0.9962 0.0872 0.0000
vn 0.9977 0.0680 -0.0066
vn 0.9962 0.0875 0.0021
vn 0.9958 0.0910 0.0065
vn 0.9992 0.0054 -0.0389
vn -0.0136 -0.2247 0.9743
vn -0.0499 0.9902 -0.1302
vn -0.0979 0.9868 -0.1288
vn -0.0778 0.8638 -0.4978
vn -0.0507 0.9040 -0.4245
vn -0.9978 0.0652 0.0095
vn -0.9962 0.0868 -0.0023
vn -0.9962 0.0872 0.0000
vn 0.0000 -0.0000 1.0000
vn 0.0017 -0.0288 0.9996
vn 0.0027 -0.0446 0.9990
vn -0.0685 0.9976 -0.0000
vn -0.1027 0.9947 -0.0000
vn 0.0000 -1.0000 -0.0000
vn 0.0018 -0.0409 -0.9992
vn 0.0020 -0.0446 -0.9990
vn 0.0039 -0.0874 -0.9962
vn 0.9963 0.0856 0.0004
vn -0.0845 -0.9664 -0.2429
vn -0.0821 -0.9380 -0.3369
vn -0.0285 -0.9715 -0.2354
vn -0.0424 -0.9693 -0.2421
vn -0.5153 -0.8020 0.3021
vn -0.4480 -0.8651 0.2256
vn -0.0424 -0.9693 0.2421
vn -0.0276 -0.9733 0.2280
vn -0.0027 -0.0446 0.9990
vn -0.0017 -0.0288 0.9996
vn -0.0020 -0.0446 -0.9990
vn -0.0018 -0.0409 -0.9992
vn -0.0039 -0.0874 -0.9962
vn 0.0136 -0.2247 0.9743
vn 0.0276 -0.9733 0.2280
vn 0.0424 -0.9693 0.2421
vn 0.4480 -0.8651 0.2256
vn 0.5153 -0.8020 0.3021
vn 0.9979 -0.0339 0.0560
vn -0.0401 0.4984 -0.8660
vn -0.0393 0.4899 -0.8709
vn -0.0094 0.1290 -0.9916
vn -0.0091 0.1250 -0.9921
vn -0.4508 -0.8926 -0.0019
vn -0.0438 -0.9990 -0.0000
vn 0.9963 0.0858 -0.0001
vn 0.0438 -0.9990 -0.0000
vn 0.4508 -0.8926 -0.0019
vn 0.0424 -0.9693 -0.2421
vn 0.0845 -0.9664 -0.2429
vn 0.0685 0.9976 -0.0000
vn 0.1027 0.9947 -0.0000
vn 0.1028 0.9947 -0.0000
vn -0.9961 0.0878 0.0021
vn -0.9963 0.0863 -0.0013
vn -0.9963 0.0860 -0.0001
vn -0.9963 0.0861 0.0001
vn -0.9963 0.0861 0.0002
vn -1.0000 0.0000 0.0000
vn 0.0401 0.4984 -0.8660
vn 0.0393 0.4899 -0.8709
vn 0.0091 0.1250 -0.9921
vn 0.0094 0.1290 -0.9916
vn 0.0778 0.8638 -0.4978
vn 0.0507 0.9040 -0.4245
vn 0.0499 0.9902 -0.1302
vn -0.9993 0.0078 0.0368
vn -0.9979 -0.0339 0.0560
vn 0.0285 -0.9715 -0.2354
vn 0.9626 -0.2535 0.0952
vn 0.0821 -0.9380 -0.3369
vn -0.9627 -0.2535 0.0952
vn -0.9976 0.0682 -0.0069
vn -0.9799 -0.1995 0.0000
vn 0.9799 -0.1995 -0.0000
vn 0.0979 0.9868 -0.1288
vn -0.0136 -0.2247 -0.9743
vn 0.9975 -0.0360 -0.0606
vn -0.9992 0.0054 -0.0390
vn -0.9975 -0.0360 -0.0606
vn 0.0054 -0.0890 0.9960
vn -0.1028 0.9947 -0.0000
vn -0.0054 -0.0890 0.9960
vn 0.9962 0.0868 -0.0023
vn 0.9963 0.0859 -0.0004
vn 0.9963 0.0861 -0.0015
vn -0.9958 0.0912 0.0061
vn 0.6934 0.7205 0.0045
vn 0.6921 0.7218 0.0022
vn -0.6744 0.0043 -0.7384
vn -0.7572 -0.0393 -0.6520
vn -0.6745 0.0042 -0.7383
vn 0.7572 -0.0393 -0.6520
vn 0.6744 0.0043 -0.7384
vn 0.6745 0.0042 -0.7383
vn 0.7588 0.0234 0.6509
vn 0.8074 -0.0202 0.5897
vn 0.8252 -0.0917 -0.5573
vn -0.8252 -0.0917 -0.5573
vn -0.8074 -0.0202 0.5897
vn -0.7588 0.0234 0.6509
vn -0.6867 0.6250 -0.3712
vn -0.6924 0.7139 -0.1048
vn -0.6928 0.7162 -0.0840
vn -0.6896 0.6476 -0.3243
vn 0.6922 0.7141 -0.1049
vn 0.6867 0.6250 -0.3712
vn 0.6896 0.6476 -0.3243
vn 0.6925 0.7165 -0.0842
vn -0.6424 0.3761 -0.6678
vn -0.6567 0.4455 -0.6085
vn 0.6424 0.3761 -0.6678
vn 0.6567 0.4455 -0.6085
vn -0.5952 0.1264 -0.7936
vn -0.5997 0.1709 -0.7818
vn 0.5952 0.1264 -0.7936
vn 0.5997 0.1709 -0.7818
vn -0.6926 0.7213 0.0022
vn -0.7722 -0.6110 -0.1740
vn -0.7666 -0.6421 0.0052
vn -0.7717 -0.6144 -0.1641
vn -0.7589 -0.6276 0.1738
vn 0.7666 -0.6421 0.0052
vn 0.7589 -0.6276 0.1738
vn 0.7722 -0.6110 -0.1740
vn 0.7717 -0.6144 -0.1641
vn -0.7555 -0.6093 0.2409
vn 0.7555 -0.6093 0.2409
vn -0.6938 0.7201 0.0043
vn 0.7066 0.0650 0.7047
vn -0.7066 0.0650 0.7047
vn -0.7736 -0.5890 -0.2338
vn -0.8223 -0.0916 0.5617
vn 0.7736 -0.5890 -0.2338
vn 0.8223 -0.0916 0.5617
vn 0.0136 -0.2247 -0.9743
vn -0.0000 -0.9621 -0.2725
vn -0.0000 -0.9483 -0.3174
vn 0.0000 0.5641 -0.8257
vn 0.0000 0.6600 -0.7513
vn -1.0000 0.0001 0.0000
vn -1.0000 0.0000 0.0001
vn 1.0000 0.0001 0.0001
vn 1.0000 0.0001 -0.0000
vn 1.0000 0.0000 0.0001
vn 0.9985 -0.0346 0.0434
vn 0.9985 -0.0339 0.0426
vn 0.0000 -0.6037 0.7972
vn 0.0000 -0.9307 -0.3657
vn 0.0000 0.6485 0.7612
vn 0.0000 0.5558 0.8313
vn 0.9902 -0.0869 0.1089
vn 0.0000 0.4462 0.8949
vn -0.9985 -0.0346 0.0434
vn -0.9985 -0.0339 0.0426
vn -0.9902 -0.0869 0.1089
vn 0.0000 -0.2041 0.9789
vn -1.0000 0.0001 0.0001
vn 1.0000 -0.0000 -0.0000
vn 0.0000 0.8807 -0.4737
vn 0.0000 0.9806 -0.1962
vn 0.0000 0.9907 -0.1361
vn 0.0000 0.3861 -0.9225
vn -0.0000 0.0169 -0.9999
vn -0.0000 -0.1661 -0.9861
vn 0.0000 0.7546 -0.6562
vn 0.0000 0.6995 -0.7146
vn 0.0000 0.9876 -0.1569
vn 0.0000 0.9138 0.4061
vn 0.0000 0.7656 0.6433
vn -0.0000 -0.1882 0.9821
vn -0.0000 -0.4339 0.9010
vn -0.0000 -0.8543 0.5197
vn -0.0000 -0.9996 -0.0276
vn -0.0000 -0.9127 -0.4087
vn -0.0000 -0.8492 -0.5281
usemtl hexagons_medieval
s 1
f 36/1/1 90/2/2 99/3/3
f 34/4/4 91/5/5 75/6/6 43/7/7
f 8/8/8 40/9/8 51/10/8 16/11/8
f 22/12/9 93/13/10 96/14/11 121/15/12
f 39/16/13 82/17/14 86/18/15
f 1/19/16 10/20/17 44/21/18 76/22/16
f 5/23/19 92/24/20 93/13/10 22/12/9
f 49/25/21 50/26/21 15/27/21 19/28/21 57/29/21 58/30/21
f 131/31/22 89/32/23 57/29/24 19/28/24
f 67/33/25 91/5/5 34/4/4
f 62/34/26 40/35/27 8/36/28 27/37/29
f 38/38/30 63/39/31 32/40/32 3/41/33
f 74/42/16 41/43/34 9/44/35 2/45/16
f 78/46/36 137/47/37 20/48/38 60/49/38
f 35/50/39 7/51/39 15/27/39 50/26/39
f 4/52/40 31/53/41 68/54/42 33/55/43
f 90/2/2 36/1/1 49/25/44 58/30/44
f 121/15/12 96/14/11 98/56/45 23/57/46
f 23/57/46 98/56/45 100/58/47 25/59/48
f 65/60/49 30/61/50 32/40/32 63/39/31
f 67/33/25 72/62/51 91/5/5
f 29/63/52 71/64/53 68/54/42 31/53/41
f 28/65/54 69/66/55 71/64/53 29/63/52
f 6/67/56 80/68/57 74/69/58 2/70/58
f 79/71/59 83/72/60 61/73/61 66/74/62
f 39/16/13 61/73/61 83/72/60
f 66/74/62 64/75/63 79/71/59
f 30/61/50 29/63/52 31/53/41 32/40/32
f 27/37/29 28/65/54 29/63/52 30/61/50
f 131/31/22 25/59/48 100/58/47 89/32/23
f 137/76/64 26/77/64 120/78/64 12/79/64
f 85/80/65 24/81/66 26/82/67 87/83/68
f 26/77/64 24/84/64 126/85/64 120/78/64
f 81/86/69 127/87/70 24/81/66 85/80/65
f 21/88/71 22/12/9 121/15/12 127/87/70
f 39/16/13 77/89/72 59/90/73 52/91/73
f 27/37/29 8/36/28 7/92/74 28/65/54
f 62/34/26 27/37/29 30/61/50 65/60/49
f 137/93/75 8/94/75 16/95/75 20/96/75
f 45/97/21 46/98/21 13/99/21 17/100/21 53/101/21 54/102/21
f 8/36/28 137/103/21 131/104/21 7/92/74
f 28/65/54 7/92/74 35/105/76 69/66/55
f 131/106/77 19/107/77 15/108/77 7/109/77
f 37/110/78 79/71/59 64/75/63
f 10/111/79 4/112/79 14/113/79 18/114/79
f 16/11/21 51/10/21 52/91/21 59/90/21 60/49/21 20/48/21
f 4/52/40 10/115/21 9/116/21 3/41/33
f 14/117/21 47/118/21 48/119/21 55/120/21 56/121/21 18/122/21
f 9/123/80 17/124/80 13/125/80 3/126/80
f 80/68/57 6/67/56 21/88/71 84/127/81
f 84/127/81 21/88/71 127/87/70 81/86/69
f 6/67/56 5/23/19 22/12/9 21/88/71
f 10/20/17 1/19/16 2/45/16 9/44/35
f 38/128/82 3/129/82 13/99/82 46/98/82
f 3/41/33 32/40/32 31/53/41 4/52/40
f 34/4/4 43/7/7 55/120/83 48/119/83
f 42/130/84 37/110/78 45/97/85 54/102/85
f 44/21/18 10/20/17 18/131/86 56/132/86
f 78/46/36 87/83/68 26/82/67 137/47/37
f 76/133/87 92/24/20 5/23/19 1/134/87
f 39/16/13 86/18/15 88/135/15
f 39/16/13 83/72/60 82/17/14
f 39/16/13 88/135/15 77/89/72
f 9/44/35 41/43/34 53/136/88 17/137/88
f 36/1/1 97/138/3 95/139/89
f 36/1/1 99/3/3 97/138/3
f 70/140/90 94/141/91 91/5/5 72/62/51
f 79/71/59 37/110/78 42/130/84 73/142/92
f 36/1/1 95/139/89 94/141/91
f 75/143/93 91/144/94 92/145/94 76/146/93
f 78/147/95 60/148/96 59/149/96 77/150/97
f 57/151/98 89/152/99 90/153/100 58/154/98
f 44/155/101 56/156/102 55/157/102 43/158/101
f 47/159/103 33/160/103 34/161/103 48/162/103
f 45/163/104 37/164/104 38/165/104 46/166/104
f 53/167/105 41/168/106 42/169/106 54/170/105
f 82/171/107 83/172/108 84/173/109 81/174/110
f 94/175/111 95/176/112 96/177/113 93/178/114
f 86/179/115 82/171/107 81/174/110 85/180/116
f 95/176/112 97/181/117 98/182/118 96/177/113
f 88/183/119 86/179/115 85/180/116 87/184/120
f 97/181/117 99/185/121 100/186/122 98/182/118
f 80/187/123 84/173/109 83/172/108 79/188/123
f 87/184/120 78/147/95 77/150/97 88/183/119
f 99/185/121 90/153/100 89/152/99 100/186/122
f 91/144/94 94/175/111 93/178/114 92/145/94
f 62/189/124 65/190/49 66/191/125 61/192/126
f 65/190/49 63/193/31 64/194/127 66/191/125
f 68/195/42 71/196/53 72/197/128 67/198/129
f 71/196/53 69/199/130 70/200/131 72/197/128
f 63/193/31 38/165/30 37/164/132 64/194/127
f 67/198/129 34/161/133 33/160/43 68/195/42
f 79/188/123 73/201/134 74/202/134 80/187/123
f 76/146/135 44/155/101 43/158/101 75/143/135
f 41/168/106 74/202/136 73/201/136 42/169/106
f 61/192/126 39/203/137 40/204/137 62/189/124
f 51/205/138 40/204/138 39/203/138 52/206/138
f 36/207/139 70/200/131 69/199/130 35/208/139
f 35/208/140 50/209/140 49/210/140 36/207/140
f 4/211/141 33/212/141 47/118/141 14/117/141
f 2/213/142 1/214/142 102/215/143 103/216/143
f 5/217/144 6/218/144 118/219/145 112/220/145
f 116/221/146 115/222/147 111/223/64
f 1/224/148 5/217/149 112/225/149
f 112/225/149 114/226/149 1/224/148
f 1/224/148 101/227/150 106/228/151 102/229/152
f 104/230/153 105/231/153 108/232/153 109/233/153
f 103/216/143 102/215/143 105/234/154 104/235/154
f 101/227/155 115/222/155 107/236/156 106/237/156
f 102/229/152 106/228/151 108/232/157 105/231/157
f 106/237/156 107/236/156 109/238/158 108/239/158
f 107/240/159 103/241/160 104/230/161 109/233/161
f 115/222/162 101/227/162 110/242/162 111/243/162
f 6/218/146 2/244/163 118/245/146
f 114/226/149 113/246/149 1/224/148
f 103/241/160 107/240/159 115/222/147 2/244/163
f 101/227/150 113/246/149 110/247/164
f 1/224/148 113/246/149 101/227/150
f 112/220/145 118/219/145 117/248/165 114/249/165
f 114/249/165 117/248/165 116/250/166 113/251/166
f 113/251/166 116/250/166 111/243/167 110/242/167
f 2/244/163 116/221/146 117/252/146
f 2/244/163 117/252/146 118/245/146
f 2/244/163 115/222/147 116/221/146
f 126/253/168 122/254/168 119/255/169 120/256/169
f 12/257/170 120/256/169 119/255/169 11/258/170
f 128/259/171 124/260/171 122/254/168 126/253/168
f 23/261/164 25/262/164 119/263/164 122/264/164
f 25/262/164 131/265/164 11/266/164 119/263/164
f 12/257/172 11/258/172 132/267/172 138/268/172
f 124/260/171 128/259/171 129/269/173 123/270/173
f 123/270/173 129/269/173 130/271/174 125/272/174
f 127/273/175 121/274/175 125/272/174 130/271/174
f 23/261/164 124/275/164 123/276/164
f 23/261/164 123/276/164 125/277/164
f 23/261/164 125/277/164 121/278/164
f 23/261/164 122/264/164 124/275/164
f 24/84/64 129/279/64 128/280/64
f 24/84/64 130/281/64 129/279/64
f 24/84/64 127/282/64 130/281/64
f 24/84/64 128/280/64 126/85/64
f 131/283/176 137/284/176 139/285/177 133/286/177
f 133/286/177 139/285/177 140/287/178 134/288/178
f 134/288/178 140/287/178 141/289/179 135/290/179
f 135/290/179 141/289/179 142/291/180 136/292/180
f 136/292/180 142/291/180 138/268/181 132/267/181
f 11/266/164 131/265/164 133/293/164
f 11/266/164 133/293/164 134/294/164
f 11/266/164 134/294/164 135/295/164
f 11/266/164 135/295/164 136/296/164
f 11/266/164 136/296/164 132/297/164
f 12/79/64 139/298/64 137/76/64
f 12/79/64 140/299/64 139/298/64
f 12/79/64 141/300/64 140/299/64
f 12/79/64 142/301/64 141/300/64
f 12/79/64 138/302/64 142/301/64
f 70/140/90 36/1/1 94/141/91
