# Blender v3.4.1 OBJ File: 'Medieval_Hexagons_Export_1.0_WorldOrigin.blend'
# www.blender.org
mtllib horse_saddle.mtl
o horse_saddle
v -0.103102 0.363518 0.052263
v 0.103196 0.363518 0.052263
v -0.067368 0.397719 0.052263
v -0.067368 0.397719 -0.163931
v 0.067367 0.397719 0.052263
v 0.067367 0.397719 -0.163931
v 0.128812 0.376152 0.011096
v 0.076162 0.424918 0.011141
v -0.128727 0.376150 0.011103
v -0.076193 0.424899 -0.122810
v 0.076188 0.424903 -0.122813
v -0.076177 0.424917 0.011144
v 0.128847 0.376143 0.052216
v 0.076174 0.424911 0.052261
v -0.128779 0.376138 -0.163971
v -0.076186 0.424908 -0.163930
v 0.076176 0.424910 -0.163933
v 0.128775 0.376143 -0.163978
v -0.128754 0.376140 0.052223
v -0.076184 0.424908 0.052264
v -0.148261 0.205975 0.052187
v 0.148261 0.205972 0.052179
v 0.146716 0.214205 -0.097534
v 0.147748 0.205972 -0.056323
v 0.144113 0.237651 -0.132468
v 0.140335 0.272741 -0.155807
v 0.135958 0.314132 -0.163998
v -0.147749 0.205975 -0.056317
v -0.146717 0.214208 -0.097527
v -0.144114 0.237655 -0.132460
v -0.140336 0.272745 -0.155799
v -0.135960 0.314137 -0.163990
v 0.128811 0.376132 -0.122858
v 0.143638 0.246853 0.011067
v 0.142432 0.252653 -0.081346
v 0.143180 0.246836 -0.052214
v 0.140866 0.266974 -0.102679
v 0.138610 0.288555 -0.117028
v 0.135560 0.318114 -0.122876
v -0.128807 0.376125 -0.122850
v -0.143637 0.246856 0.011075
v -0.143167 0.246837 -0.052208
v -0.142418 0.252655 -0.081338
v -0.140851 0.266976 -0.102671
v -0.138598 0.288558 -0.117020
v -0.135551 0.318117 -0.122868
v -0.103126 0.363518 -0.163931
v -0.119826 0.204834 0.052263
v -0.118330 0.213029 -0.097755
v -0.119311 0.204834 -0.056732
v -0.115873 0.236365 -0.132533
v -0.112312 0.271289 -0.155771
v -0.108191 0.312486 -0.163931
v 0.103125 0.363518 -0.163931
v 0.119825 0.204834 0.052263
v 0.119310 0.204834 -0.056731
v 0.118329 0.213029 -0.097754
v 0.115872 0.236364 -0.132533
v 0.112311 0.271288 -0.155771
v 0.108190 0.312484 -0.163931
vt 0.666079 0.840859
vt 0.665106 0.827412
vt 0.659769 0.827847
vt 0.661149 0.844184
vt 0.698848 0.834246
vt 0.698848 0.834246
vt 0.672952 0.834246
vt 0.672952 0.834246
vt 0.706694 0.827411
vt 0.705720 0.840859
vt 0.710650 0.844186
vt 0.712031 0.827846
vt 0.666084 0.825234
vt 0.666079 0.825234
vt 0.705734 0.825234
vt 0.705720 0.825234
vt 0.671259 0.919538
vt 0.700538 0.919538
vt 0.700543 0.919535
vt 0.671256 0.919534
vt 0.698848 0.849871
vt 0.700541 0.857036
vt 0.666084 0.840859
vt 0.672952 0.849871
vt 0.671257 0.857036
vt 0.661154 0.844185
vt 0.698848 0.849871
vt 0.700540 0.857037
vt 0.708930 0.799045
vt 0.708831 0.799045
vt 0.714297 0.799344
vt 0.714395 0.799344
vt 0.662870 0.799045
vt 0.657404 0.799345
vt 0.705734 0.840859
vt 0.710664 0.844186
vt 0.672952 0.849871
vt 0.671257 0.857036
vt 0.661143 0.906681
vt 0.661159 0.906688
vt 0.710657 0.906683
vt 0.710657 0.906688
vt 0.708642 0.801204
vt 0.714098 0.801514
vt 0.708170 0.807353
vt 0.713598 0.807692
vt 0.707486 0.816556
vt 0.712872 0.816939
vt 0.662969 0.799045
vt 0.657503 0.799345
vt 0.657701 0.801515
vt 0.663157 0.801204
vt 0.658201 0.807693
vt 0.663629 0.807353
vt 0.658927 0.816940
vt 0.664314 0.816556
vt 0.700538 0.888288
vt 0.671259 0.888288
vt 0.671257 0.888286
vt 0.700540 0.888287
vt 0.671256 0.888284
vt 0.700543 0.888285
vt 0.700541 0.888286
vt 0.671257 0.888286
vt 0.710657 0.875438
vt 0.710664 0.875436
vt 0.661143 0.875431
vt 0.661149 0.875435
vt 0.710657 0.875433
vt 0.710650 0.875436
vt 0.661159 0.875438
vt 0.661154 0.875435
vt 0.661159 0.859813
vt 0.658293 0.825743
vt 0.657404 0.814970
vt 0.661154 0.859810
vt 0.713507 0.825742
vt 0.710657 0.859813
vt 0.710664 0.859811
vt 0.714395 0.814969
vt 0.713275 0.827270
vt 0.713419 0.825737
vt 0.714297 0.814969
vt 0.714098 0.817139
vt 0.712974 0.831044
vt 0.713598 0.823317
vt 0.712540 0.836731
vt 0.712872 0.832564
vt 0.711954 0.844520
vt 0.712031 0.843471
vt 0.658383 0.825738
vt 0.658527 0.827271
vt 0.657701 0.817140
vt 0.657503 0.814970
vt 0.658828 0.831044
vt 0.658201 0.823318
vt 0.659262 0.836731
vt 0.658927 0.832565
vt 0.659847 0.844521
vt 0.659769 0.843472
vt 0.661143 0.859806
vt 0.661149 0.859809
vt 0.710657 0.859808
vt 0.710650 0.859811
vt 0.710657 0.891063
vt 0.713419 0.856987
vt 0.713275 0.858520
vt 0.712974 0.862294
vt 0.712540 0.867981
vt 0.711954 0.875770
vt 0.713507 0.856992
vt 0.710657 0.891058
vt 0.661159 0.891063
vt 0.658527 0.858521
vt 0.658383 0.856988
vt 0.658828 0.862294
vt 0.659262 0.867981
vt 0.659847 0.875771
vt 0.658293 0.856993
vt 0.661143 0.891056
vt 0.662969 0.783420
vt 0.663157 0.785579
vt 0.663629 0.791728
vt 0.664314 0.800931
vt 0.665106 0.811787
vt 0.662870 0.783420
vt 0.708642 0.785579
vt 0.708831 0.783420
vt 0.708170 0.791728
vt 0.707486 0.800931
vt 0.706694 0.811786
vt 0.708930 0.783420
vn 0.0013 -0.0002 -1.0000
vn -0.0036 -0.0947 -0.9955
vn -0.0039 -0.1002 -0.9950
vn -0.3721 -0.9282 0.0001
vn 0.3725 -0.9280 -0.0000
vn 0.0033 -0.0947 -0.9955
vn -0.0015 -0.0003 -1.0000
vn -0.0015 -0.0002 -1.0000
vn 0.0036 -0.1003 -0.9950
vn 0.8982 -0.4395 0.0013
vn 0.8991 -0.4378 -0.0001
vn -0.8982 -0.4396 0.0015
vn -0.8989 -0.4382 0.0002
vn -0.3653 0.9309 0.0000
vn 0.3649 0.9311 -0.0001
vn 0.3651 0.9310 -0.0001
vn -0.0005 -0.0002 -1.0000
vn -0.0004 -0.0002 -1.0000
vn -0.0014 0.0002 1.0000
vn -0.0004 0.0002 1.0000
vn 0.0005 0.0002 1.0000
vn 0.0004 0.0002 1.0000
vn 0.0400 -0.9992 -0.0002
vn 0.0412 -0.9941 -0.1005
vn 0.0412 -0.9944 -0.0974
vn -0.0021 0.0001 1.0000
vn 0.0017 0.0003 1.0000
vn 0.0024 0.0001 1.0000
vn 0.0004 -0.0002 -1.0000
vn -0.8919 0.4522 -0.0001
vn -0.8924 0.4513 -0.0002
vn 0.8918 0.4524 -0.0004
vn 0.8923 0.4514 -0.0004
vn 0.0412 -0.9203 -0.3890
vn 0.0413 -0.9236 -0.3811
vn 0.0336 -0.6999 -0.7135
vn 0.0339 -0.7077 -0.7057
vn 0.0182 -0.3746 -0.9270
vn 0.0188 -0.3854 -0.9226
vn -0.0414 -0.9941 -0.1005
vn -0.0413 -0.9944 -0.0974
vn -0.0415 -0.9236 -0.3811
vn -0.0414 -0.9203 -0.3890
vn -0.0342 -0.7077 -0.7057
vn -0.0338 -0.6998 -0.7135
vn -0.0191 -0.3854 -0.9226
vn -0.0185 -0.3746 -0.9270
vn -0.0401 -0.9992 -0.0002
vn 0.3649 0.9311 -0.0000
vn 0.3651 0.9310 -0.0000
vn -0.3652 0.9309 0.0000
vn 0.8921 0.4518 -0.0000
vn -0.8919 0.4523 -0.0006
vn 0.8918 0.4524 -0.0008
vn -0.8922 0.4516 0.0002
vn -0.9936 0.1125 -0.0038
vn -0.9937 0.1118 -0.0026
vn 0.9937 0.1120 -0.0038
vn 0.9938 0.1114 -0.0027
vn 0.9939 0.1107 -0.0012
vn 0.9938 0.1115 -0.0045
vn 0.9939 0.1104 -0.0042
vn 0.9938 0.1109 -0.0013
vn 0.9941 0.1082 0.0014
vn 0.9941 0.1086 0.0010
vn 0.9944 0.1054 0.0025
vn 0.9944 0.1056 0.0011
vn 0.9940 0.1091 0.0013
vn 0.9940 0.1098 -0.0003
vn -0.9937 0.1119 -0.0045
vn -0.9938 0.1111 -0.0010
vn -0.9938 0.1113 -0.0011
vn -0.9938 0.1107 -0.0042
vn -0.9941 0.1085 0.0017
vn -0.9941 0.1088 0.0013
vn -0.9944 0.1055 0.0029
vn -0.9944 0.1057 0.0015
vn -0.9940 0.1091 0.0017
vn -0.9940 0.1098 -0.0000
vn 0.9946 -0.1041 0.0036
vn 0.9947 -0.1028 0.0022
vn 0.9948 -0.1015 0.0011
vn 0.9950 -0.1003 0.0004
vn 0.9951 -0.0992 -0.0000
vn 0.9945 -0.1048 0.0047
vn -0.9947 -0.1024 0.0024
vn -0.9946 -0.1035 0.0037
vn -0.9949 -0.1013 0.0014
vn -0.9950 -0.1001 0.0008
vn -0.9951 -0.0991 0.0004
vn -0.9945 -0.1042 0.0047
usemtl hexagons_medieval
s 1
f 47/1/1 53/2/2 32/3/3 15/4/1
f 6/5/4 5/6/4 3/7/5 4/8/5
f 60/9/6 54/10/7 18/11/8 27/12/9
f 3/7/5 1/13/10 47/14/11 4/8/5
f 2/15/12 5/6/4 6/5/4 54/16/13
f 12/17/14 8/18/15 11/19/16 10/20/14
f 54/10/7 6/21/17 17/22/18 18/11/8
f 1/23/19 3/24/20 20/25/20 19/26/19
f 3/24/20 5/27/21 14/28/22 20/25/20
f 55/29/23 56/30/24 24/31/25 22/32/23
f 48/33/26 1/23/19 19/26/19 21/34/26
f 2/35/27 55/29/28 22/32/28 13/36/27
f 6/21/17 4/37/29 16/38/29 17/22/18
f 5/27/21 2/35/27 13/36/27 14/28/22
f 4/37/29 47/1/1 15/4/1 16/38/29
f 10/20/14 40/39/30 9/40/31 12/17/14
f 33/41/32 11/19/16 8/18/15 7/42/33
f 24/31/25 56/30/24 57/43/34 23/44/35
f 23/44/35 57/43/34 58/45/36 25/46/37
f 25/46/37 58/45/36 59/47/38 26/48/39
f 26/48/39 59/47/38 60/9/6 27/12/9
f 50/49/40 28/50/41 29/51/42 49/52/43
f 49/52/43 29/51/42 30/53/44 51/54/45
f 51/54/45 30/53/44 31/55/46 52/56/47
f 52/56/47 31/55/46 32/3/3 53/2/2
f 50/49/40 48/33/48 21/34/48 28/50/41
f 8/57/15 12/58/14 20/59/14 14/60/49
f 10/61/14 11/62/16 17/63/50 16/64/51
f 7/65/33 8/57/15 14/60/49 13/66/52
f 40/67/30 10/61/14 16/64/51 15/68/53
f 11/62/16 33/69/32 18/70/54 17/63/50
f 12/58/14 9/71/31 19/72/55 20/59/14
f 9/73/31 41/74/56 21/75/57 19/76/55
f 34/77/58 7/78/33 13/79/52 22/80/59
f 35/81/60 36/82/61 24/83/62 23/84/63
f 37/85/64 35/81/60 23/84/63 25/86/65
f 38/87/66 37/85/64 25/86/65 26/88/67
f 39/89/68 38/87/66 26/88/67 27/90/69
f 42/91/70 43/92/71 29/93/72 28/94/73
f 43/92/71 44/95/74 30/96/75 29/93/72
f 44/95/74 45/97/76 31/98/77 30/96/75
f 45/97/76 46/99/78 32/100/79 31/98/77
f 41/74/56 42/91/70 28/94/73 21/75/57
f 46/99/78 40/101/30 15/102/53 32/100/79
f 36/82/61 34/77/58 22/80/59 24/83/62
f 33/103/32 39/89/68 27/90/69 18/104/54
f 7/105/33 36/106/61 35/107/60
f 7/105/33 35/107/60 37/108/64
f 7/105/33 37/108/64 38/109/66
f 7/105/33 38/109/66 39/110/68
f 7/105/33 34/111/58 36/106/61
f 7/105/33 39/110/68 33/112/32
f 9/113/31 43/114/71 42/115/70
f 9/113/31 44/116/74 43/114/71
f 9/113/31 45/117/76 44/116/74
f 9/113/31 46/118/78 45/117/76
f 9/113/31 42/115/70 41/119/56
f 9/113/31 40/120/30 46/118/78
f 1/13/10 50/121/80 49/122/81
f 1/13/10 49/122/81 51/123/82
f 1/13/10 51/123/82 52/124/83
f 1/13/10 52/124/83 53/125/84
f 1/13/10 48/126/85 50/121/80
f 1/13/10 53/125/84 47/14/11
f 2/15/12 57/127/86 56/128/87
f 2/15/12 58/129/88 57/127/86
f 2/15/12 59/130/89 58/129/88
f 2/15/12 60/131/90 59/130/89
f 2/15/12 56/128/87 55/132/91
f 2/15/12 54/16/13 60/131/90
