# Blender v3.4.1 OBJ File: 'Medieval_Hexagons_Export_1.0_WorldOrigin.blend'
# www.blender.org
mtllib anchor.mtl
o anchor
v 0.042215 0.200000 0.022108
v 0.024782 0.200000 0.015940
v 0.024782 0.200000 -0.015940
v 0.042215 0.200000 -0.022108
v 0.034153 0.224814 0.022108
v 0.020049 0.214567 0.015940
v 0.020049 0.214567 -0.015940
v 0.034153 0.224814 -0.022108
v 0.013045 0.240149 0.022108
v 0.007658 0.223569 0.015940
v 0.007658 0.223569 -0.015940
v 0.013045 0.240149 -0.022108
v -0.013045 0.240149 0.022108
v -0.007658 0.223569 0.015940
v -0.007658 0.223569 -0.015940
v -0.013045 0.240149 -0.022108
v -0.034153 0.224813 0.022108
v -0.020049 0.214567 0.015940
v -0.020049 0.214567 -0.015940
v -0.034153 0.224814 -0.022108
v -0.042215 0.200000 0.022108
v -0.024782 0.200000 0.015940
v -0.024782 0.200000 -0.015940
v -0.042215 0.200000 -0.022108
v -0.034153 0.175187 0.022108
v -0.020049 0.185433 0.015940
v -0.020049 0.185433 -0.015940
v -0.034153 0.175187 -0.022108
v -0.013045 0.159851 0.022108
v -0.007658 0.176431 0.015940
v -0.007658 0.176431 -0.015940
v -0.013045 0.159851 -0.022108
v 0.013045 0.159851 0.022108
v 0.007658 0.176431 0.015940
v 0.007658 0.176431 -0.015940
v 0.013045 0.159851 -0.022108
v 0.034153 0.175186 0.022108
v 0.020049 0.185433 0.015940
v 0.020049 0.185433 -0.015940
v 0.034153 0.175186 -0.022108
v 0.059155 0.130000 -0.015068
v -0.059155 0.130000 -0.015068
v -0.000000 -0.010579 -0.016350
v -0.000000 0.158295 -0.013560
v 0.016829 -0.006172 -0.009876
v 0.013247 0.158300 -0.006855
v 0.016829 -0.006172 0.009876
v 0.013247 0.158300 0.006855
v -0.000000 -0.010579 0.016350
v -0.000000 0.158295 0.013560
v -0.016829 -0.006172 0.009876
v -0.013247 0.158300 0.006855
v -0.016829 -0.006172 -0.009876
v -0.013247 0.158300 -0.006855
v -0.059155 0.116951 -0.007534
v 0.059155 0.116951 -0.007534
v -0.059155 0.116951 0.007534
v 0.059155 0.116951 0.007534
v -0.059155 0.130000 0.015068
v 0.059155 0.130000 0.015068
v -0.059155 0.143049 0.007534
v 0.059155 0.143049 0.007534
v -0.059155 0.143049 -0.007534
v 0.059155 0.143049 -0.007534
v 0.084069 0.021588 -0.012523
v -0.084069 0.021588 -0.012523
v -0.091648 0.014346 -0.005978
v 0.091648 0.014346 -0.005978
v -0.091648 0.014346 0.005978
v 0.091648 0.014346 0.005978
v -0.084069 0.021588 0.012523
v 0.084069 0.021588 0.012523
v -0.075650 0.029251 0.006528
v 0.075649 0.029251 0.006528
v -0.075650 0.029251 -0.006528
v 0.075649 0.029251 -0.006528
v -0.047981 -0.001675 0.021171
v 0.047981 -0.001675 0.021171
v -0.000000 -0.015552 0.024201
v 0.050720 -0.020009 -0.010509
v -0.050720 -0.020009 -0.010509
v -0.000000 -0.036504 -0.011989
v -0.047981 -0.001675 -0.021171
v 0.047981 -0.001675 -0.021171
v -0.000000 -0.015552 -0.024201
v 0.050720 -0.020009 0.010509
v -0.050720 -0.020009 0.010509
v -0.000000 -0.036504 0.011989
v -0.044160 0.016813 0.010698
v 0.044160 0.016813 0.010698
v -0.000000 0.006166 0.012485
v 0.044160 0.016813 -0.010698
v -0.044160 0.016813 -0.010698
v -0.000000 0.006166 -0.012485
v 0.061516 0.130000 0.000000
v -0.061516 0.130000 0.000000
v 0.057742 0.200000 0.000000
v 0.046714 0.233940 0.000000
v -0.046714 0.166060 0.000000
v -0.057742 0.200000 0.000000
v 0.017843 0.254916 0.000000
v -0.017843 0.145085 0.000000
v -0.017843 0.254916 0.000000
v 0.017843 0.145085 0.000000
v -0.046714 0.233940 0.000000
v 0.046714 0.166060 0.000000
v 0.087747 0.025043 -0.021612
v -0.087747 0.025043 -0.021612
v -0.101280 0.013510 -0.010141
v 0.101280 0.013510 -0.010141
v -0.101280 0.013510 0.010141
v 0.101280 0.013510 0.010141
v -0.087747 0.025043 0.021612
v 0.087747 0.025043 0.021612
v -0.072190 0.037546 0.011406
v 0.072190 0.037546 0.011406
v -0.072190 0.037546 -0.011406
v 0.072190 0.037546 -0.011406
v 0.108921 0.066738 -0.000000
v -0.108921 0.066738 0.000000
vt 0.316115 0.945760
vt 0.309174 0.952899
vt 0.310135 0.945810
vt 0.318633 0.937071
vt 0.321878 0.900373
vt 0.318766 0.911652
vt 0.318766 0.900373
vt 0.316115 0.934481
vt 0.313536 0.931828
vt 0.315578 0.900373
vt 0.294190 0.889094
vt 0.296232 0.920550
vt 0.296232 0.920550
vt 0.294190 0.889094
vt 0.315578 0.900373
vt 0.313536 0.931828
vt 0.316115 0.934481
vt 0.318766 0.900373
vt 0.309174 0.952899
vt 0.316115 0.945760
vt 0.300594 0.952899
vt 0.299632 0.945810
vt 0.309174 0.941621
vt 0.308189 0.937328
vt 0.315578 0.889094
vt 0.313536 0.857638
vt 0.313536 0.857638
vt 0.315578 0.889094
vt 0.308189 0.937328
vt 0.309174 0.941621
vt 0.293653 0.945760
vt 0.291135 0.937071
vt 0.300594 0.941621
vt 0.301579 0.937328
vt 0.296232 0.857638
vt 0.296232 0.857638
vt 0.301579 0.937328
vt 0.300594 0.941621
vt 0.291002 0.911652
vt 0.287890 0.900373
vt 0.293653 0.934481
vt 0.296232 0.931828
vt 0.301579 0.852139
vt 0.301579 0.852139
vt 0.296232 0.931828
vt 0.293653 0.934481
vt 0.293653 0.877542
vt 0.291135 0.863674
vt 0.291002 0.900373
vt 0.294190 0.900373
vt 0.308189 0.852139
vt 0.308189 0.852139
vt 0.294190 0.900373
vt 0.291002 0.900373
vt 0.300594 0.870403
vt 0.299632 0.854935
vt 0.293653 0.866264
vt 0.296232 0.868917
vt 0.296232 0.868917
vt 0.293653 0.866264
vt 0.309174 0.870403
vt 0.310135 0.854935
vt 0.300594 0.859125
vt 0.301579 0.863417
vt 0.301579 0.926049
vt 0.301579 0.926049
vt 0.301579 0.863417
vt 0.300594 0.859125
vt 0.316115 0.877542
vt 0.318633 0.863674
vt 0.309174 0.859125
vt 0.308189 0.863417
vt 0.313536 0.920550
vt 0.313536 0.920550
vt 0.308189 0.863417
vt 0.309174 0.859125
vt 0.316115 0.866264
vt 0.313536 0.868917
vt 0.313536 0.868917
vt 0.316115 0.866264
vt 0.308189 0.926049
vt 0.308189 0.926049
vt 0.272889 0.799236
vt 0.275015 0.804325
vt 0.275015 0.804325
vt 0.272889 0.799236
vt 0.282969 0.858485
vt 0.282969 0.864500
vt 0.282411 0.858485
vt 0.302168 0.788186
vt 0.302168 0.872722
vt 0.306103 0.872722
vt 0.307366 0.790310
vt 0.272889 0.799236
vt 0.285680 0.783508
vt 0.285680 0.783508
vt 0.282969 0.905360
vt 0.321368 0.905360
vt 0.321368 0.911375
vt 0.282969 0.911375
vt 0.306103 0.872722
vt 0.307366 0.790310
vt 0.321368 0.858485
vt 0.321368 0.864500
vt 0.321926 0.858485
vt 0.282969 0.852470
vt 0.321368 0.852470
vt 0.321368 0.858485
vt 0.307366 0.837185
vt 0.306103 0.919597
vt 0.302168 0.919597
vt 0.302168 0.835061
vt 0.282969 0.864500
vt 0.282969 0.858485
vt 0.282969 0.852470
vt 0.321368 0.852470
vt 0.302168 0.788186
vt 0.302168 0.872722
vt 0.298234 0.872722
vt 0.296970 0.790310
vt 0.277344 0.840838
vt 0.277344 0.840838
vt 0.277344 0.840838
vt 0.277344 0.840838
vt 0.298234 0.872722
vt 0.296970 0.790310
vt 0.275015 0.851200
vt 0.286432 0.839022
vt 0.287497 0.847683
vt 0.277344 0.856463
vt 0.282969 0.895750
vt 0.321368 0.895750
vt 0.321368 0.895750
vt 0.282969 0.895750
vt 0.277344 0.809588
vt 0.287497 0.800808
vt 0.286432 0.792147
vt 0.275015 0.804325
vt 0.317904 0.792147
vt 0.329321 0.804325
vt 0.331448 0.799236
vt 0.318657 0.783508
vt 0.316840 0.800808
vt 0.326993 0.809588
vt 0.316840 0.832058
vt 0.326993 0.840838
vt 0.326993 0.840838
vt 0.316840 0.832058
vt 0.331448 0.799236
vt 0.318657 0.783508
vt 0.287497 0.832058
vt 0.287497 0.832058
vt 0.329321 0.804325
vt 0.317904 0.792147
vt 0.317904 0.839022
vt 0.329321 0.851200
vt 0.326993 0.856463
vt 0.316840 0.847683
vt 0.302168 0.826686
vt 0.302168 0.826686
vt 0.302168 0.775288
vt 0.302168 0.785219
vt 0.302168 0.775288
vt 0.302168 0.795436
vt 0.302168 0.842311
vt 0.302168 0.832094
vt 0.302168 0.785219
vt 0.286432 0.792147
vt 0.331448 0.799236
vt 0.331448 0.799236
vt 0.326993 0.809588
vt 0.329321 0.804325
vt 0.329321 0.804325
vt 0.272889 0.799236
vt 0.275015 0.804325
vt 0.277344 0.856463
vt 0.275015 0.851200
vt 0.277344 0.809588
vt 0.329321 0.851200
vt 0.326993 0.856463
vt 0.326993 0.840838
vt 0.326993 0.840838
vt 0.321368 0.864500
vt 0.318766 0.911652
vt 0.316115 0.877542
vt 0.309174 0.870403
vt 0.300594 0.870403
vt 0.293653 0.877542
vt 0.291002 0.911652
vt 0.293653 0.945760
vt 0.300594 0.952899
vt 0.271541 0.856685
vt 0.271541 0.809810
vt 0.332796 0.809810
vt 0.271541 0.841060
vt 0.332796 0.856685
vt 0.332796 0.841060
vn 0.6621 0.4810 -0.5747
vn 0.2529 0.7783 -0.5747
vn 0.8183 -0.0000 -0.5747
vn -0.3336 -0.0000 0.9427
vn -0.2699 -0.1961 0.9427
vn 1.0000 0.0000 0.0000
vn 0.8090 -0.5878 0.0000
vn -0.3336 0.0000 -0.9427
vn -0.2699 -0.1961 -0.9427
vn 0.2529 0.7783 0.5747
vn 0.6621 0.4810 0.5747
vn -0.2529 0.7783 -0.5747
vn -0.1031 -0.3172 0.9427
vn -1.0000 0.0000 0.0000
vn -0.8090 0.5878 0.0000
vn -0.1031 -0.3172 -0.9427
vn -0.6621 0.4810 -0.5747
vn 0.1031 -0.3172 0.9427
vn 0.8090 0.5878 0.0000
vn 0.1031 -0.3172 -0.9427
vn -0.8183 0.0000 -0.5747
vn 0.2699 -0.1961 0.9427
vn 0.3090 0.9511 0.0000
vn 0.2699 -0.1961 -0.9427
vn -0.6621 -0.4810 -0.5747
vn 0.3336 -0.0000 0.9427
vn -0.3090 0.9511 0.0000
vn 0.3336 0.0000 -0.9427
vn -0.2529 -0.7783 -0.5747
vn 0.2699 0.1961 0.9427
vn 0.2699 0.1961 -0.9427
vn 0.2529 -0.7783 -0.5747
vn 0.1031 0.3172 0.9427
vn 0.3090 -0.9511 0.0000
vn 0.1031 0.3172 -0.9427
vn 0.6621 -0.4810 -0.5747
vn -0.1031 0.3172 0.9427
vn -0.8090 -0.5878 -0.0000
vn -0.1031 0.3172 -0.9427
vn -0.2699 0.1961 0.9427
vn -0.2699 0.1961 -0.9427
vn -0.3090 -0.9511 -0.0000
vn -0.0535 -0.9800 0.1919
vn 0.5436 -0.6895 0.4785
vn 0.5405 -0.6918 0.4788
vn 0.2093 -0.9459 0.2480
vn -0.9879 -0.0000 0.1548
vn -0.9879 0.1341 0.0774
vn 0.3988 0.0203 -0.9168
vn -0.0535 -0.9800 -0.1919
vn -0.4788 -0.8779 0.0000
vn 0.0000 0.5000 0.8660
vn 0.9998 0.0218 0.0000
vn 0.9879 0.0000 -0.1548
vn 0.9879 0.1341 -0.0774
vn 0.0000 -0.5000 0.8660
vn 0.3988 0.0203 0.9168
vn -0.0000 0.5000 -0.8660
vn -0.0000 -1.0000 -0.0000
vn -0.3988 0.0203 0.9168
vn 0.8551 -0.4647 0.2298
vn 0.8551 -0.4647 -0.2298
vn 0.8549 -0.4648 -0.2304
vn 0.8549 -0.4648 0.2304
vn -0.0000 -0.5000 -0.8660
vn -0.9998 0.0218 0.0000
vn 0.0989 0.4967 0.8622
vn 0.0882 0.4844 0.8704
vn 0.0906 0.4871 0.8686
vn 0.0000 1.0000 0.0000
vn -0.3988 0.0203 -0.9168
vn 0.0989 0.4967 -0.8622
vn 0.0906 0.4871 -0.8686
vn 0.0882 0.4844 -0.8704
vn 0.3216 -0.4309 -0.8431
vn 0.4254 -0.3808 -0.8210
vn 0.2861 -0.4463 -0.8479
vn -0.0906 0.4871 -0.8686
vn -0.0989 0.4967 -0.8622
vn -0.0882 0.4844 -0.8704
vn -0.2981 0.9545 -0.0000
vn -0.3674 0.9301 -0.0000
vn 0.4788 -0.8779 -0.0000
vn 0.0535 -0.9800 -0.1919
vn 0.0535 -0.9800 0.1919
vn -0.4254 -0.3808 -0.8210
vn -0.3216 -0.4309 -0.8431
vn -0.2861 -0.4463 -0.8479
vn 0.3674 0.9301 0.0000
vn 0.2981 0.9545 0.0000
vn 0.2861 -0.4463 0.8479
vn 0.4254 -0.3808 0.8210
vn 0.3216 -0.4309 0.8431
vn -0.0882 0.4844 0.8704
vn -0.0989 0.4967 0.8622
vn -0.0906 0.4871 0.8686
vn -0.0000 -0.4932 -0.8699
vn -0.0000 0.4773 -0.8788
vn 0.0000 0.4773 0.8788
vn 0.0000 -0.4932 0.8699
vn -0.3216 -0.4309 0.8431
vn -0.2861 -0.4463 0.8479
vn -0.4254 -0.3808 0.8210
vn -0.2093 -0.9459 -0.2480
vn -0.2093 -0.9459 0.2480
vn -0.5436 -0.6895 -0.4785
vn -0.8551 -0.4647 -0.2298
vn -0.8549 -0.4648 -0.2304
vn -0.5405 -0.6918 -0.4788
vn -0.5436 -0.6895 0.4785
vn -0.5405 -0.6918 0.4788
vn 0.5436 -0.6895 -0.4785
vn 0.2093 -0.9459 -0.2480
vn 0.5405 -0.6918 -0.4788
vn -0.8551 -0.4647 0.2298
vn -0.8549 -0.4648 0.2304
vn -0.9879 -0.1341 0.0774
vn -0.9879 -0.0000 -0.1548
vn -0.9879 -0.1341 -0.0774
vn 0.9879 0.1341 0.0774
vn 0.9879 -0.0000 0.1548
vn 0.9879 -0.1341 0.0774
vn 0.9879 -0.1341 -0.0774
vn -0.9879 0.1341 -0.0774
vn 0.8183 -0.0000 0.5747
vn 0.6621 -0.4810 0.5747
vn 0.2529 -0.7783 0.5747
vn -0.2529 -0.7783 0.5747
vn -0.6621 -0.4810 0.5747
vn -0.8183 -0.0000 0.5747
vn -0.6621 0.4810 0.5747
vn -0.2529 0.7783 0.5747
vn 0.1440 0.5121 0.8468
vn -0.6682 0.0456 -0.7426
vn -0.6682 0.0456 0.7426
vn 0.9899 -0.1421 0.0000
vn 0.6682 0.0456 -0.7426
vn 0.1440 0.5121 -0.8468
vn 0.6682 0.0456 0.7426
vn 0.6222 0.7829 0.0000
vn -0.9899 -0.1421 0.0000
vn -0.1440 0.5121 -0.8468
vn -0.1440 0.5121 0.8468
vn -0.6222 0.7829 -0.0000
usemtl hexagons_medieval
s 1
f 8/1/1 12/2/2 101/3/2 98/4/1
f 8/1/1 98/4/1 97/5/3 4/6/3
f 1/7/4 5/8/5 6/9/5 2/10/4
f 23/11/6 19/12/7 18/13/7 22/14/6
f 3/15/8 7/16/9 8/17/9 4/18/8
f 9/19/10 5/20/11 98/4/11 101/3/10
f 12/2/2 16/21/12 103/22/12 101/3/2
f 5/8/5 9/23/13 10/24/13 6/9/5
f 3/25/14 39/26/15 38/27/15 2/28/14
f 7/16/9 11/29/16 12/30/16 8/17/9
f 16/21/12 20/31/17 105/32/17 103/22/12
f 9/23/13 13/33/18 14/34/18 10/24/13
f 27/35/19 23/11/6 22/14/6 26/36/19
f 11/29/16 15/37/20 16/38/20 12/30/16
f 20/31/17 24/39/21 100/40/21 105/32/17
f 13/33/18 17/41/22 18/42/22 14/34/18
f 31/43/23 27/35/19 26/36/19 30/44/23
f 15/37/20 19/45/24 20/46/24 16/38/20
f 24/39/21 28/47/25 99/48/25 100/40/21
f 17/41/22 21/49/26 22/50/26 18/42/22
f 35/51/27 31/43/23 30/44/23 34/52/27
f 19/45/24 23/53/28 24/54/28 20/46/24
f 28/47/25 32/55/29 102/56/29 99/48/25
f 21/49/26 25/57/30 26/58/30 22/50/26
f 39/26/15 35/51/27 34/52/27 38/27/15
f 23/53/28 27/59/31 28/60/31 24/54/28
f 32/55/29 36/61/32 104/62/32 102/56/29
f 25/57/30 29/63/33 30/64/33 26/58/30
f 19/12/7 15/65/34 14/66/34 18/13/7
f 27/59/31 31/67/35 32/68/35 28/60/31
f 36/61/32 40/69/36 106/70/36 104/62/32
f 29/63/33 33/71/37 34/72/37 30/64/33
f 7/73/38 3/25/14 2/28/14 6/74/38
f 31/67/35 35/75/39 36/76/39 32/68/35
f 40/69/36 4/6/3 97/5/3 106/70/36
f 33/71/37 37/77/40 38/78/40 34/72/37
f 35/75/39 39/79/41 40/80/41 36/76/39
f 11/81/42 7/73/38 6/74/38 10/82/42
f 37/77/40 1/7/4 2/10/4 38/78/40
f 39/79/41 3/15/8 4/18/8 40/80/41
f 69/83/43 71/84/44 113/85/45 111/86/46
f 59/87/47 61/88/48 96/89/14
f 43/90/49 44/91/49 46/92/49 45/93/49
f 67/94/50 81/95/51 87/96/51 69/83/43
f 59/97/52 60/98/52 62/99/52 61/100/52
f 45/93/53 46/92/53 48/101/53 47/102/53
f 41/103/54 64/104/55 95/105/6
f 57/106/56 58/107/56 60/108/56 59/87/56
f 47/109/57 48/110/57 50/111/57 49/112/57
f 63/113/58 64/104/58 41/103/58 42/114/58
f 55/115/59 56/116/59 58/107/59 57/106/59
f 49/117/60 50/118/60 52/119/60 51/120/60
f 73/121/61 75/122/62 117/123/63 115/124/64
f 42/114/65 41/103/65 56/116/65 55/115/65
f 51/120/66 52/119/66 54/125/66 53/126/66
f 71/127/67 77/128/68 89/129/69 73/130/67
f 61/131/70 62/132/70 64/133/70 63/134/70
f 53/126/71 54/125/71 44/91/71 43/90/71
f 43/90/59 45/93/59 47/102/59 49/117/59 51/120/59 53/126/59
f 75/135/72 93/136/73 83/137/74 66/138/72
f 84/139/75 65/140/76 68/141/76 80/142/77
f 92/143/78 76/144/79 65/140/79 84/139/80
f 90/145/81 74/146/82 76/147/82 92/148/81
f 80/142/83 68/141/84 70/149/85 86/150/83
f 66/138/86 83/137/87 81/95/88 67/94/86
f 73/121/89 89/151/90 93/152/90 75/122/89
f 86/150/91 70/149/92 72/153/92 78/154/93
f 78/155/94 72/156/95 74/157/95 90/158/96
f 90/145/81 92/148/81 94/159/70 91/160/70
f 91/160/70 94/159/70 93/152/90 89/151/90
f 84/139/75 80/142/77 82/161/97 85/162/97
f 85/162/97 82/161/97 81/95/88 83/137/87
f 80/142/83 86/150/83 88/163/59 82/161/59
f 82/161/59 88/163/59 87/96/51 81/95/51
f 92/143/78 84/139/80 85/162/98 94/164/98
f 94/164/98 85/162/98 83/137/74 93/136/73
f 78/155/94 90/158/96 91/165/99 79/166/99
f 79/166/99 91/165/99 89/129/69 77/128/68
f 86/150/91 78/154/93 79/167/100 88/163/100
f 88/163/100 79/167/100 77/168/101 87/96/102
f 69/83/103 87/96/102 77/168/101 71/84/103
f 70/149/85 68/141/84 110/169/104 112/170/105
f 65/140/106 76/144/107 118/171/108 107/172/109
f 72/153/110 70/149/85 112/170/105 114/173/111
f 66/138/112 67/94/50 109/174/113 108/175/114
f 71/127/44 73/130/61 115/176/64 113/177/45
f 75/135/62 66/138/112 108/175/114 117/178/63
f 68/141/84 65/140/106 107/172/109 110/169/104
f 74/157/115 72/156/110 114/179/111 116/180/116
f 76/147/107 74/146/115 116/181/116 118/182/108
f 67/94/50 69/83/43 111/86/46 109/174/113
f 57/106/117 59/87/47 96/89/14
f 42/114/118 55/115/119 96/89/14
f 64/104/55 62/183/120 95/105/6
f 60/108/121 58/107/122 95/105/6
f 58/107/122 56/116/123 95/105/6
f 56/116/123 41/103/54 95/105/6
f 63/113/124 42/114/118 96/89/14
f 62/183/120 60/108/121 95/105/6
f 61/88/48 63/113/124 96/89/14
f 55/115/119 57/106/117 96/89/14
f 97/5/125 98/4/11 5/20/11 1/184/125
f 37/185/126 33/186/127 104/62/127 106/70/126
f 33/186/127 29/187/128 102/56/128 104/62/127
f 29/187/128 25/188/129 99/48/129 102/56/128
f 25/188/129 21/189/130 100/40/130 99/48/129
f 21/189/130 17/190/131 105/32/131 100/40/130
f 17/190/131 13/191/132 103/22/132 105/32/131
f 13/191/132 9/19/10 101/3/10 103/22/132
f 1/184/125 37/185/126 106/70/126 97/5/125
f 15/65/34 11/81/42 10/82/42 14/66/34
f 113/177/133 115/176/133 120/192/133
f 108/175/134 109/174/134 120/193/134
f 111/86/135 113/85/135 120/193/135
f 112/170/136 110/169/136 119/194/136
f 110/169/137 107/172/137 119/194/137
f 117/178/138 108/175/138 120/193/138
f 114/173/139 112/170/139 119/194/139
f 115/124/140 117/123/140 120/195/140
f 109/174/141 111/86/141 120/193/141
f 107/172/142 118/171/142 119/194/142
f 116/180/143 114/179/143 119/196/143
f 118/182/144 116/181/144 119/197/144
