# Blender v3.4.1 OBJ File: 'Medieval_Hexagons_Export_1.0_WorldOrigin.blend'
# www.blender.org
mtllib trough_long.mtl
o trough_long
v 0.000000 0.000002 -0.000000
v 0.133710 0.105002 -0.063212
v 0.160437 0.105002 -0.037124
v 0.160437 0.105002 0.037124
v 0.133710 0.105002 0.063212
v -0.133710 0.105002 0.063212
v -0.160437 0.105002 0.037124
v -0.160437 0.105002 -0.037124
v -0.133710 0.105002 -0.063212
v 0.185382 0.105002 -0.047082
v 0.147082 0.105002 -0.085382
v 0.185382 0.105002 0.047082
v 0.147082 0.105002 0.085382
v -0.147082 0.105002 0.085381
v -0.185382 0.105002 0.047082
v -0.185382 0.105002 -0.047082
v -0.147082 0.105002 -0.085382
v 0.000000 0.077004 -0.000000
v 0.144073 0.028002 -0.078117
v 0.145577 0.077002 -0.081749
v 0.181749 0.077002 -0.045577
v 0.178117 0.028002 -0.044073
v 0.181749 0.077002 0.045577
v 0.178117 0.028002 0.044073
v 0.145577 0.077002 0.081749
v 0.144073 0.028002 0.078117
v -0.145577 0.077002 0.081749
v -0.144073 0.028002 0.078117
v -0.181749 0.077002 0.045577
v -0.178117 0.028002 0.044073
v -0.181749 0.077002 -0.045577
v -0.178117 0.028002 -0.044073
v -0.145577 0.077002 -0.081749
v -0.144073 0.028002 -0.078117
v 0.147289 0.032662 -0.085882
v 0.148995 0.072339 -0.090000
v 0.190000 0.072339 -0.048995
v 0.185882 0.032662 -0.047289
v 0.190000 0.072339 0.048995
v 0.185882 0.032662 0.047289
v 0.148995 0.072339 0.090000
v 0.147289 0.032662 0.085882
v -0.148995 0.072339 0.090000
v -0.147289 0.032662 0.085882
v -0.190000 0.072339 0.048995
v -0.185882 0.032662 0.047289
v -0.190000 0.072339 -0.048995
v -0.185882 0.032662 -0.047289
v -0.148995 0.072339 -0.090000
v -0.147289 0.032662 -0.085882
v 0.153321 0.077004 -0.034247
v 0.130762 0.077004 -0.056266
v 0.153321 0.077004 0.034247
v 0.130762 0.077004 0.056266
v -0.130762 0.077004 0.056266
v -0.153321 0.077004 0.034247
v -0.153321 0.077004 -0.034247
v -0.130762 0.077004 -0.056266
v 0.142568 0.000002 -0.074485
v 0.174485 0.000002 -0.042568
v 0.174485 0.000002 0.042568
v 0.142568 0.000002 0.074485
v -0.142568 0.000002 0.074485
v -0.174485 0.000002 0.042568
v -0.174485 0.000002 -0.042568
v -0.142568 0.000002 -0.074485
vt 0.812500 0.852751
vt 0.812500 0.866653
vt 0.841996 0.866653
vt 0.840357 0.852751
vt 0.840357 0.884001
vt 0.841996 0.897903
vt 0.854213 0.897903
vt 0.851896 0.884001
vt 0.851896 0.852751
vt 0.854213 0.866653
vt 0.841996 0.866653
vt 0.840357 0.852751
vt 0.840357 0.884001
vt 0.841996 0.897903
vt 0.812500 0.897903
vt 0.812500 0.884001
vt 0.812500 0.852751
vt 0.812500 0.866653
vt 0.783004 0.866653
vt 0.784643 0.852751
vt 0.784643 0.884001
vt 0.783004 0.897903
vt 0.770787 0.897903
vt 0.773104 0.884001
vt 0.834014 0.866653
vt 0.842926 0.866653
vt 0.838180 0.884004
vt 0.830659 0.884004
vt 0.773104 0.852751
vt 0.770787 0.866653
vt 0.783004 0.866653
vt 0.784643 0.852751
vt 0.784643 0.884001
vt 0.783004 0.897903
vt 0.812500 0.897903
vt 0.812500 0.884001
vt 0.812500 0.897903
vt 0.834014 0.897903
vt 0.834014 0.929153
vt 0.842926 0.929153
vt 0.854213 0.929153
vt 0.841996 0.929153
vt 0.842926 0.897903
vt 0.834014 0.897903
vt 0.834014 0.929153
vt 0.812500 0.929153
vt 0.812500 0.929153
vt 0.841996 0.929153
vt 0.812500 0.897903
vt 0.790986 0.897903
vt 0.790986 0.929153
vt 0.782074 0.929153
vt 0.770787 0.929153
vt 0.783004 0.929153
vt 0.782074 0.897903
vt 0.790986 0.897903
vt 0.834014 0.866653
vt 0.812500 0.866653
vt 0.812500 0.884004
vt 0.830659 0.884004
vt 0.794341 0.915254
vt 0.812500 0.915254
vt 0.794341 0.915254
vt 0.786820 0.915254
vt 0.830659 0.915254
vt 0.812500 0.915254
vt 0.830659 0.915254
vt 0.838180 0.915254
vt 0.790986 0.866653
vt 0.782074 0.866653
vt 0.786820 0.884004
vt 0.794341 0.884004
vt 0.790986 0.866653
vt 0.812500 0.866653
vt 0.812500 0.884004
vt 0.794341 0.884004
vt 0.787920 0.845763
vt 0.786282 0.859668
vt 0.812500 0.859668
vt 0.812500 0.845763
vt 0.328275 0.850043
vt 0.312500 0.850043
vt 0.312500 0.852358
vt 0.330383 0.852358
vt 0.777739 0.814513
vt 0.775422 0.828418
vt 0.786282 0.828418
vt 0.787920 0.814513
vt 0.296725 0.850043
vt 0.312500 0.850043
vt 0.312500 0.852358
vt 0.294617 0.852358
vt 0.787920 0.845763
vt 0.786282 0.859668
vt 0.775422 0.859668
vt 0.777739 0.845763
vt 0.329261 0.936876
vt 0.336204 0.936876
vt 0.339371 0.934559
vt 0.331501 0.934559
vt 0.812500 0.814513
vt 0.812500 0.828418
vt 0.786282 0.828418
vt 0.787920 0.814513
vt 0.295739 0.936876
vt 0.288796 0.936876
vt 0.285629 0.934559
vt 0.293500 0.934559
vt 0.837080 0.845763
vt 0.838718 0.859668
vt 0.812500 0.859668
vt 0.812500 0.845763
vt 0.334809 0.850043
vt 0.337790 0.852358
vt 0.847261 0.814513
vt 0.849578 0.828418
vt 0.838718 0.828418
vt 0.837080 0.814513
vt 0.290191 0.850043
vt 0.287210 0.852358
vt 0.837080 0.845763
vt 0.838718 0.859668
vt 0.849578 0.859668
vt 0.847261 0.845763
vt 0.329261 0.936876
vt 0.331501 0.934559
vt 0.812500 0.814513
vt 0.812500 0.828418
vt 0.838718 0.828418
vt 0.837080 0.814513
vt 0.295739 0.936876
vt 0.293500 0.934559
vt 0.294617 0.883608
vt 0.293500 0.903309
vt 0.312500 0.903309
vt 0.312500 0.883608
vt 0.287210 0.883608
vt 0.285629 0.903309
vt 0.294617 0.883608
vt 0.293500 0.903309
vt 0.312500 0.883608
vt 0.312500 0.903309
vt 0.330383 0.883608
vt 0.331501 0.903309
vt 0.337790 0.883608
vt 0.339371 0.903309
vt 0.330383 0.883608
vt 0.331501 0.903309
vt 0.312500 0.936876
vt 0.312500 0.934559
vt 0.296725 0.850043
vt 0.294617 0.852358
vt 0.312500 0.936876
vt 0.312500 0.934559
vt 0.328275 0.850043
vt 0.330383 0.852358
vt 0.062500 0.703382
vt 0.103096 0.640882
vt 0.079315 0.640882
vt 0.103096 0.640882
vt 0.079315 0.640882
vt 0.045684 0.640882
vt 0.021904 0.640882
vt 0.021904 0.640882
vt 0.045684 0.640882
vt 0.812500 0.798888
vt 0.812500 0.798888
vt 0.837080 0.798888
vt 0.847261 0.798888
vt 0.837080 0.798888
vt 0.812500 0.798888
vt 0.787920 0.798888
vt 0.777739 0.798888
vt 0.787920 0.798888
vt 0.790986 0.929153
vt 0.812500 0.929153
vt 0.812500 0.929153
vt 0.783004 0.929153
vn 0.3790 -0.1390 -0.9149
vn 0.9149 -0.1390 -0.3790
vn 0.9149 -0.1390 0.3790
vn 0.3790 -0.1390 0.9149
vn -0.3790 -0.1390 0.9149
vn -0.9149 -0.1390 0.3790
vn -0.9149 -0.1390 -0.3790
vn -0.3648 0.2602 -0.8940
vn -0.8891 0.2644 -0.3737
vn -0.8884 0.2644 -0.3754
vn -0.3632 0.2602 -0.8946
vn -0.3790 -0.1390 -0.9149
vn 0.0000 1.0000 0.0000
vn -0.8891 0.2644 0.3737
vn -0.3648 0.2602 0.8940
vn -0.3632 0.2602 0.8946
vn -0.8884 0.2644 0.3754
vn 0.3648 0.2602 0.8940
vn 0.3632 0.2602 0.8946
vn 0.8891 0.2644 0.3737
vn 0.8891 0.2644 -0.3737
vn 0.8884 0.2644 -0.3754
vn 0.8884 0.2644 0.3754
vn 0.3648 0.2602 -0.8940
vn 0.3632 0.2602 -0.8946
vn 0.4480 -0.8746 -0.1856
vn 0.1856 -0.8746 -0.4480
vn -0.4480 -0.8746 0.1856
vn -0.1856 -0.8746 0.4480
vn 0.4276 0.8864 -0.1771
vn 0.4276 0.8864 0.1771
vn -0.4276 0.8864 0.1771
vn -0.4276 0.8864 -0.1771
vn 0.4480 -0.8746 0.1856
vn -0.4480 -0.8746 -0.1856
vn 0.1771 0.8864 0.4276
vn -0.1771 0.8864 -0.4276
vn -0.3803 -0.1116 -0.9181
vn 0.3803 -0.1116 -0.9181
vn -0.9181 -0.1116 -0.3803
vn -0.9181 -0.1116 0.3803
vn -0.3803 -0.1116 0.9181
vn 0.3803 -0.1116 0.9181
vn 0.9181 -0.1116 0.3803
vn 0.9181 -0.1116 -0.3803
vn -0.1771 0.8864 0.4276
vn -0.1856 -0.8746 -0.4480
vn 0.1771 0.8864 -0.4276
vn 0.1856 -0.8746 0.4480
vn 0.0000 -1.0000 -0.0000
usemtl hexagons_medieval
s 1
f 20/1/1 11/2/1 10/3/2 21/4/2
f 21/5/2 10/6/2 12/7/3 23/8/3
f 23/9/3 12/10/3 13/11/4 25/12/4
f 25/13/4 13/14/4 14/15/5 27/16/5
f 27/17/5 14/18/5 15/19/6 29/20/6
f 29/21/6 15/22/6 16/23/7 31/24/7
f 5/25/8 4/26/9 53/27/10 54/28/11
f 31/29/7 16/30/7 17/31/12 33/32/12
f 33/33/12 17/34/12 11/35/1 20/36/1
f 2/37/13 3/38/13 10/6/13 11/35/13
f 3/39/13 4/40/13 12/41/13 10/42/13
f 4/43/13 5/44/13 13/14/13 12/7/13
f 5/45/13 6/46/13 14/47/13 13/48/13
f 6/49/13 7/50/13 15/22/13 14/15/13
f 7/51/13 8/52/13 16/53/13 15/54/13
f 8/55/13 9/56/13 17/34/13 16/23/13
f 3/57/14 2/58/15 52/59/16 51/60/17
f 2/37/15 9/56/18 58/61/19 52/62/16
f 8/55/20 7/50/21 56/63/22 57/64/23
f 6/49/24 5/44/8 54/65/11 55/66/25
f 4/43/9 3/38/14 51/67/17 53/68/10
f 9/69/18 8/70/20 57/71/23 58/72/19
f 7/73/21 6/74/24 55/75/25 56/76/22
f 66/77/12 34/78/12 19/79/1 59/80/1
f 22/81/26 19/82/27 35/83/27 38/84/26
f 65/85/7 32/86/7 34/87/12 66/88/12
f 30/89/28 28/90/29 44/91/29 46/92/28
f 64/93/6 30/94/6 32/95/7 65/96/7
f 21/97/30 23/98/31 39/99/31 37/100/30
f 63/101/5 28/102/5 30/103/6 64/104/6
f 29/105/32 31/106/33 47/107/33 45/108/32
f 62/109/4 26/110/4 28/111/5 63/112/5
f 24/113/34 22/81/26 38/84/26 40/114/34
f 61/115/3 24/116/3 26/117/4 62/118/4
f 32/119/35 30/89/28 46/92/28 48/120/35
f 60/121/2 22/122/2 24/123/3 61/124/3
f 23/98/31 25/125/36 41/126/36 39/99/31
f 59/127/1 19/128/1 22/129/2 60/130/2
f 31/106/33 33/131/37 49/132/37 47/107/33
f 50/133/38 49/134/38 36/135/39 35/136/39
f 48/137/40 47/138/40 49/134/38 50/133/38
f 46/139/41 45/140/41 47/138/40 48/137/40
f 44/141/42 43/142/42 45/140/41 46/139/41
f 42/143/43 41/144/43 43/142/42 44/141/42
f 40/145/44 39/146/44 41/144/43 42/143/43
f 38/147/45 37/148/45 39/146/44 40/145/44
f 35/136/39 36/135/39 37/148/45 38/147/45
f 27/149/46 29/105/32 45/108/32 43/150/46
f 19/82/27 34/151/47 50/152/47 35/83/27
f 20/153/48 21/97/30 37/100/30 36/154/48
f 28/90/29 26/155/49 42/156/49 44/91/29
f 33/131/37 20/153/48 36/154/48 49/132/37
f 25/125/36 27/149/46 43/150/46 41/126/36
f 34/151/47 32/119/35 48/120/35 50/152/47
f 26/155/49 24/113/34 40/114/34 42/156/49
f 18/157/13 51/158/13 52/159/13
f 18/157/13 53/160/13 51/158/13
f 18/157/13 54/161/13 53/160/13
f 18/157/13 55/162/13 54/161/13
f 18/157/13 56/163/13 55/162/13
f 18/157/13 57/164/13 56/163/13
f 18/157/13 58/165/13 57/164/13
f 18/157/13 52/159/13 58/165/13
f 1/166/50 59/167/50 60/168/50
f 1/166/50 60/168/50 61/169/50
f 1/166/50 61/169/50 62/170/50
f 1/166/50 62/170/50 63/171/50
f 1/166/50 63/171/50 64/172/50
f 1/166/50 64/172/50 65/173/50
f 1/166/50 65/173/50 66/174/50
f 1/166/50 66/174/50 59/167/50
f 9/175/13 2/176/13 11/177/13 17/178/13
