{
    "asset" : {
        "generator" : "Khronos glTF Blender I/O v3.4.50",
        "version" : "2.0"
    },
    "scene" : 0,
    "scenes" : [
        {
            "name" : "Scene",
            "nodes" : [
                3
            ]
        }
    ],
    "nodes" : [
        {
            "mesh" : 0,
            "name" : "catapult_arm_yellow_full",
            "translation" : [
                0,
                0.39844951033592224,
                0
            ]
        },
        {
            "mesh" : 1,
            "name" : "catapult_axle_front_yellow_full",
            "translation" : [
                0,
                0.12038092315196991,
                0.2832489311695099
            ]
        },
        {
            "mesh" : 2,
            "name" : "catapult_axle_rear_yellow_full",
            "translation" : [
                0,
                0.12038091570138931,
                -0.2832488715648651
            ]
        },
        {
            "children" : [
                0,
                1,
                2
            ],
            "mesh" : 3,
            "name" : "catapult_yellow_full"
        }
    ],
    "materials" : [
        {
            "name" : "hexagons_medieval",
            "pbrMetallicRoughness" : {
                "baseColorTexture" : {
                    "index" : 0
                },
                "metallicFactor" : 0,
                "roughnessFactor" : 0.5
            }
        }
    ],
    "meshes" : [
        {
            "name" : "catapult_arm_yellow_full0",
            "primitives" : [
                {
                    "attributes" : {
                        "POSITION" : 0,
                        "TEXCOORD_0" : 1,
                        "NORMAL" : 2
                    },
                    "indices" : 3,
                    "material" : 0
                }
            ]
        },
        {
            "name" : "catapult_axle_front_yellow_full0",
            "primitives" : [
                {
                    "attributes" : {
                        "POSITION" : 4,
                        "TEXCOORD_0" : 5,
                        "NORMAL" : 6
                    },
                    "indices" : 7,
                    "material" : 0
                }
            ]
        },
        {
            "name" : "catapult_axle_rear_yellow_full0",
            "primitives" : [
                {
                    "attributes" : {
                        "POSITION" : 8,
                        "TEXCOORD_0" : 9,
                        "NORMAL" : 10
                    },
                    "indices" : 11,
                    "material" : 0
                }
            ]
        },
        {
            "name" : "catapult_yellow_full0",
            "primitives" : [
                {
                    "attributes" : {
                        "POSITION" : 12,
                        "TEXCOORD_0" : 13,
                        "NORMAL" : 14
                    },
                    "indices" : 15,
                    "material" : 0
                }
            ]
        }
    ],
    "textures" : [
        {
            "sampler" : 0,
            "source" : 0
        }
    ],
    "images" : [
        {
            "mimeType" : "image/png",
            "name" : "hexagons_medieval",
            "uri" : "hexagons_medieval.png"
        }
    ],
    "accessors" : [
        {
            "bufferView" : 0,
            "componentType" : 5126,
            "count" : 376,
            "max" : [
                0.14807480573654175,
                0.04426554962992668,
                0.231373593211174
            ],
            "min" : [
                -0.14808054268360138,
                -0.11772698163986206,
                -0.6533305644989014
            ],
            "type" : "VEC3"
        },
        {
            "bufferView" : 1,
            "componentType" : 5126,
            "count" : 376,
            "type" : "VEC2"
        },
        {
            "bufferView" : 2,
            "componentType" : 5126,
            "count" : 376,
            "type" : "VEC3"
        },
        {
            "bufferView" : 3,
            "componentType" : 5123,
            "count" : 1200,
            "type" : "SCALAR"
        },
        {
            "bufferView" : 4,
            "componentType" : 5126,
            "count" : 772,
            "max" : [
                0.35390785336494446,
                0.11873766034841537,
                0.11874308437108994
            ],
            "min" : [
                -0.35390785336494446,
                -0.1187485083937645,
                -0.11874306946992874
            ],
            "type" : "VEC3"
        },
        {
            "bufferView" : 5,
            "componentType" : 5126,
            "count" : 772,
            "type" : "VEC2"
        },
        {
            "bufferView" : 6,
            "componentType" : 5126,
            "count" : 772,
            "type" : "VEC3"
        },
        {
            "bufferView" : 7,
            "componentType" : 5123,
            "count" : 1560,
            "type" : "SCALAR"
        },
        {
            "bufferView" : 8,
            "componentType" : 5126,
            "count" : 774,
            "max" : [
                0.35390785336494446,
                0.11873766034841537,
                0.11874308437108994
            ],
            "min" : [
                -0.35390785336494446,
                -0.1187485083937645,
                -0.11874306946992874
            ],
            "type" : "VEC3"
        },
        {
            "bufferView" : 9,
            "componentType" : 5126,
            "count" : 774,
            "type" : "VEC2"
        },
        {
            "bufferView" : 10,
            "componentType" : 5126,
            "count" : 774,
            "type" : "VEC3"
        },
        {
            "bufferView" : 11,
            "componentType" : 5123,
            "count" : 1560,
            "type" : "SCALAR"
        },
        {
            "bufferView" : 12,
            "componentType" : 5126,
            "count" : 523,
            "max" : [
                0.23045217990875244,
                0.5714908242225647,
                0.3494475483894348
            ],
            "min" : [
                -0.23042643070220947,
                0.16193531453609467,
                -0.3494475483894348
            ],
            "type" : "VEC3"
        },
        {
            "bufferView" : 13,
            "componentType" : 5126,
            "count" : 523,
            "type" : "VEC2"
        },
        {
            "bufferView" : 14,
            "componentType" : 5126,
            "count" : 523,
            "type" : "VEC3"
        },
        {
            "bufferView" : 15,
            "componentType" : 5123,
            "count" : 1068,
            "type" : "SCALAR"
        }
    ],
    "bufferViews" : [
        {
            "buffer" : 0,
            "byteLength" : 4512,
            "byteOffset" : 0,
            "target" : 34962
        },
        {
            "buffer" : 0,
            "byteLength" : 3008,
            "byteOffset" : 4512,
            "target" : 34962
        },
        {
            "buffer" : 0,
            "byteLength" : 4512,
            "byteOffset" : 7520,
            "target" : 34962
        },
        {
            "buffer" : 0,
            "byteLength" : 2400,
            "byteOffset" : 12032,
            "target" : 34963
        },
        {
            "buffer" : 0,
            "byteLength" : 9264,
            "byteOffset" : 14432,
            "target" : 34962
        },
        {
            "buffer" : 0,
            "byteLength" : 6176,
            "byteOffset" : 23696,
            "target" : 34962
        },
        {
            "buffer" : 0,
            "byteLength" : 9264,
            "byteOffset" : 29872,
            "target" : 34962
        },
        {
            "buffer" : 0,
            "byteLength" : 3120,
            "byteOffset" : 39136,
            "target" : 34963
        },
        {
            "buffer" : 0,
            "byteLength" : 9288,
            "byteOffset" : 42256,
            "target" : 34962
        },
        {
            "buffer" : 0,
            "byteLength" : 6192,
            "byteOffset" : 51544,
            "target" : 34962
        },
        {
            "buffer" : 0,
            "byteLength" : 9288,
            "byteOffset" : 57736,
            "target" : 34962
        },
        {
            "buffer" : 0,
            "byteLength" : 3120,
            "byteOffset" : 67024,
            "target" : 34963
        },
        {
            "buffer" : 0,
            "byteLength" : 6276,
            "byteOffset" : 70144,
            "target" : 34962
        },
        {
            "buffer" : 0,
            "byteLength" : 4184,
            "byteOffset" : 76420,
            "target" : 34962
        },
        {
            "buffer" : 0,
            "byteLength" : 6276,
            "byteOffset" : 80604,
            "target" : 34962
        },
        {
            "buffer" : 0,
            "byteLength" : 2136,
            "byteOffset" : 86880,
            "target" : 34963
        }
    ],
    "samplers" : [
        {
            "magFilter" : 9729,
            "minFilter" : 9987
        }
    ],
    "buffers" : [
        {
            "byteLength" : 89016,
            "uri" : "catapult_yellow_full.bin"
        }
    ]
}
