# Blender v3.4.1 OBJ File: 'Medieval_Hexagons_Export_1.0_WorldOrigin.blend'
# www.blender.org
mtllib bow_red_full.mtl
o bow_red_full
v 0.006009 -0.171566 -0.070257
v 0.006009 0.171567 -0.070257
v -0.006009 -0.171566 -0.070257
v -0.006009 0.171567 -0.070257
v 0.017084 -0.057189 0.001188
v 0.013242 -0.095314 -0.016860
v 0.008195 -0.133440 -0.042018
v 0.017084 0.057189 0.001187
v 0.013242 0.095315 -0.016860
v 0.008195 0.133441 -0.042018
v -0.008195 0.133441 -0.042018
v -0.013242 0.095315 -0.016860
v -0.017084 0.057189 0.001187
v -0.017084 -0.057189 0.001188
v -0.013242 -0.095314 -0.016860
v -0.008195 -0.133440 -0.042018
v 0.004081 -0.150004 -0.061221
v 0.004081 0.150005 -0.061221
v -0.000000 -0.139753 -0.057140
v -0.000000 0.139754 -0.057140
v -0.000000 -0.158110 -0.065302
v -0.000000 0.158111 -0.065302
v -0.004081 -0.150004 -0.061221
v -0.004081 0.150005 -0.061221
v 0.017412 0.038126 0.004643
v -0.017412 0.038126 0.004643
v 0.017412 -0.038126 0.004643
v -0.017412 -0.038126 0.004643
v 0.011508 -0.025198 0.003242
v 0.011725 -0.012599 0.008205
v 0.011725 0.012600 0.008205
v -0.011508 0.025199 0.003242
v -0.011725 0.012600 0.008205
v -0.011725 -0.012599 0.008205
v 0.011508 0.025199 0.003242
v -0.011508 -0.025198 0.003242
v 0.000000 -0.171566 -0.062809
v 0.000000 0.171567 -0.062808
v 0.000000 -0.133440 -0.034569
v 0.000000 -0.095314 -0.009412
v 0.000000 -0.057189 0.008636
v 0.000000 0.057189 0.008636
v 0.000000 0.095315 -0.009412
v 0.000000 0.133441 -0.034570
v 0.000000 0.038126 0.012091
v 0.000000 -0.038126 0.012091
v 0.000000 -0.012599 0.015653
v 0.000000 0.012600 0.015653
v 0.000000 0.025199 0.010690
v 0.000000 -0.025198 0.010690
v 0.000000 -0.158534 -0.073995
v 0.000000 0.158535 -0.073995
v 0.000000 -0.123304 -0.048458
v 0.000000 -0.088074 -0.026467
v 0.000000 -0.052844 -0.010879
v 0.000000 0.052845 -0.010879
v 0.000000 0.088075 -0.026467
v 0.000000 0.123305 -0.048458
v 0.000000 0.035230 -0.007907
v 0.000000 -0.035229 -0.007907
v 0.000000 -0.011642 -0.008057
v 0.000000 0.011643 -0.008057
v 0.000000 0.023285 -0.005053
v 0.000000 -0.023284 -0.005053
vt 0.189286 0.179608
vt 0.193311 0.199795
vt 0.193311 0.185963
vt 0.189286 0.164638
vt 0.189286 0.189943
vt 0.189286 0.204912
vt 0.189286 0.204912
vt 0.189286 0.189943
vt 0.189286 0.149669
vt 0.193311 0.172130
vt 0.189286 0.164638
vt 0.189286 0.149669
vt 0.193311 0.089136
vt 0.193311 0.102969
vt 0.189286 0.074821
vt 0.189286 0.059852
vt 0.189286 0.097276
vt 0.189286 0.097276
vt 0.193311 0.123717
vt 0.193311 0.123717
vt 0.189286 0.097276
vt 0.189286 0.097276
vt 0.189286 0.089791
vt 0.193311 0.116801
vt 0.193311 0.158298
vt 0.189286 0.134699
vt 0.189286 0.122580
vt 0.189286 0.122580
vt 0.189286 0.122580
vt 0.189286 0.122580
vt 0.189286 0.127215
vt 0.189286 0.134699
vt 0.193311 0.151382
vt 0.189286 0.070187
vt 0.189286 0.085156
vt 0.189286 0.085156
vt 0.189286 0.070187
vt 0.189286 0.100126
vt 0.189286 0.100126
vt 0.189286 0.115095
vt 0.189286 0.115095
vt 0.189286 0.127215
vt 0.189286 0.127215
vt 0.193311 0.151382
vt 0.189286 0.127215
vt 0.193311 0.144466
vt 0.189286 0.119730
vt 0.189286 0.152519
vt 0.189286 0.160004
vt 0.189286 0.160004
vt 0.189286 0.152519
vt 0.189286 0.174973
vt 0.189286 0.174973
vt 0.178560 0.029686
vt 0.178560 0.194809
vt 0.178560 0.194809
vt 0.178560 0.029686
vt 0.195538 0.194809
vt 0.195538 0.029686
vt 0.195538 0.194809
vt 0.195538 0.029686
vt 0.189286 0.152519
vt 0.189286 0.152519
vt 0.189286 0.122580
vt 0.189286 0.074821
vt 0.189286 0.089791
vt 0.189286 0.104760
vt 0.193311 0.130633
vt 0.189286 0.130065
vt 0.189286 0.130065
vt 0.189286 0.122580
vt 0.189286 0.145034
vt 0.189286 0.145034
vt 0.189286 0.119730
vt 0.189286 0.104760
vt 0.189286 0.145034
vt 0.189286 0.152519
vt 0.189286 0.130065
vt 0.189286 0.115095
vt 0.189286 0.152519
vt 0.189286 0.174973
vt 0.189286 0.189943
vt 0.189286 0.160004
vt 0.189286 0.100126
vt 0.189286 0.085156
vt 0.189286 0.070187
vt 0.189286 0.204912
vt 0.189286 0.059852
vt 0.189286 0.179608
vt 0.193311 0.075304
vt 0.189286 0.044882
vt 0.189286 0.179608
vt 0.193311 0.174491
vt 0.189286 0.044882
vt 0.189286 0.044882
vt 0.193311 0.050000
vn -0.8336 -0.3102 -0.4571
vn -0.7703 -0.3278 -0.5470
vn -0.7916 -0.3226 -0.5189
vn -0.5499 0.4915 0.6753
vn -0.6390 0.4696 0.6093
vn -0.5836 0.4841 0.6520
vn -0.6784 -0.3182 -0.6622
vn -0.6747 -0.3167 -0.6667
vn 0.6747 -0.3167 -0.6667
vn 0.7703 -0.3278 -0.5470
vn 0.7916 -0.3226 -0.5189
vn 0.6784 -0.3182 -0.6622
vn 0.7703 0.3278 -0.5470
vn 0.6747 0.3167 -0.6667
vn 0.6784 0.3182 -0.6622
vn 0.7916 0.3226 -0.5189
vn -0.5945 0.1547 -0.7890
vn -0.5947 0.1868 -0.7820
vn -0.5946 0.1606 -0.7878
vn 0.5945 0.1547 -0.7890
vn 0.5946 0.1606 -0.7878
vn 0.5947 0.1868 -0.7820
vn 0.6132 0.2150 -0.7601
vn 0.6131 0.2147 -0.7603
vn 0.6131 -0.2147 -0.7603
vn 0.6132 -0.2150 -0.7601
vn 0.4276 0.0167 0.9038
vn 0.4230 -0.0112 0.9061
vn 0.4489 0.1970 0.8716
vn -0.5945 -0.1547 -0.7890
vn -0.6132 -0.2150 -0.7601
vn -0.6131 -0.2147 -0.7603
vn -0.5946 -0.1606 -0.7878
vn -0.6390 -0.4696 0.6093
vn -0.5499 -0.4915 0.6753
vn -0.5836 -0.4841 0.6519
vn -0.4425 -0.4491 0.7762
vn -0.4541 -0.4609 0.7625
vn -0.3995 -0.2805 0.8728
vn -0.4002 -0.2956 0.8674
vn 0.5946 -0.1606 -0.7878
vn 0.5945 -0.1547 -0.7890
vn 0.5947 -0.1868 -0.7820
vn -0.7284 -0.0487 -0.6834
vn -0.7758 -0.0219 -0.6306
vn -0.7748 -0.0225 -0.6318
vn -0.4276 -0.0167 0.9038
vn -0.3995 0.2805 0.8728
vn -0.4002 0.2956 0.8674
vn -0.4230 0.0112 0.9061
vn -0.4425 0.4491 0.7762
vn -0.4541 0.4609 0.7625
vn 0.7071 -0.0000 0.7071
vn -0.7071 -0.0000 0.7071
vn -0.7071 0.0000 -0.7071
vn 0.7071 0.0000 -0.7071
vn -0.4489 -0.1970 0.8716
vn -0.4276 0.0167 0.9038
vn -0.4230 -0.0112 0.9061
vn -0.6784 0.3182 -0.6622
vn -0.6132 0.2150 -0.7601
vn -0.6131 0.2147 -0.7603
vn -0.6747 0.3167 -0.6667
vn -0.7284 0.0487 -0.6834
vn -0.7748 0.0225 -0.6318
vn -0.7758 0.0219 -0.6306
vn -0.5116 -0.3187 0.7979
vn -0.5317 -0.1506 0.8334
vn -0.5302 -0.1704 0.8306
vn -0.5317 0.1506 0.8334
vn -0.5302 0.1704 0.8306
vn -0.5116 0.3187 0.7979
vn 0.7758 0.0219 -0.6306
vn 0.7758 -0.0219 -0.6306
vn 0.7748 -0.0225 -0.6318
vn 0.7748 0.0225 -0.6318
vn 0.5302 0.1704 0.8306
vn 0.5116 0.3187 0.7979
vn 0.5317 0.1506 0.8334
vn 0.5302 -0.1704 0.8306
vn 0.5317 -0.1506 0.8334
vn 0.5116 -0.3187 0.7979
vn 0.4002 -0.2956 0.8674
vn 0.3995 -0.2805 0.8728
vn 0.4230 0.0112 0.9061
vn 0.4276 -0.0167 0.9038
vn 0.4489 -0.1970 0.8716
vn 0.4541 0.4609 0.7625
vn 0.5836 0.4841 0.6520
vn 0.5499 0.4915 0.6753
vn 0.4425 0.4491 0.7762
vn 0.4002 0.2956 0.8674
vn 0.3995 0.2805 0.8728
vn 0.4541 -0.4609 0.7625
vn 0.4425 -0.4491 0.7762
vn 0.5836 -0.4841 0.6519
vn 0.5499 -0.4915 0.6753
vn 0.6390 -0.4696 0.6093
vn -0.4489 0.1970 0.8716
vn 0.6390 0.4696 0.6093
vn 0.7284 -0.0487 -0.6834
vn 0.7284 0.0487 -0.6834
vn -0.5947 -0.1868 -0.7820
vn -0.7916 0.3226 -0.5189
vn -0.7703 0.3278 -0.5470
vn 0.8336 -0.3102 -0.4571
vn 0.8336 0.3102 -0.4571
vn 0.0000 0.6513 -0.7588
vn 0.0000 -0.6513 -0.7588
vn -0.8336 0.3102 -0.4571
usemtl hexagons_medieval
s 1
f 4/1/1 52/2/1 58/3/2 11/4/3
f 44/5/4 38/6/5 4/7/5 11/8/6
f 12/9/7 11/4/3 58/3/2 57/10/8
f 57/10/9 58/3/10 10/11/11 9/12/12
f 53/13/13 54/14/14 6/15/15 7/16/16
f 28/17/17 36/18/18 64/19/18 60/20/19
f 27/21/20 60/20/21 64/19/22 29/22/22
f 60/20/21 27/21/20 5/23/23 55/24/24
f 56/25/25 57/10/9 9/12/12 8/26/26
f 46/27/27 27/28/28 29/29/29 50/30/29
f 26/31/30 13/32/31 56/25/32 59/33/33
f 37/34/34 39/35/35 16/36/36 3/37/34
f 39/35/35 40/38/37 15/39/38 16/36/36
f 40/38/37 41/40/39 14/41/40 15/39/38
f 59/33/41 25/42/42 35/43/43 63/44/43
f 32/45/44 63/44/44 62/46/45 33/47/46
f 45/48/47 42/49/48 13/50/49 26/51/50
f 42/49/48 43/52/51 12/53/52 13/50/49
f 43/52/51 44/5/4 11/8/6 12/53/52
f 17/54/53 18/55/53 20/56/53 19/57/53
f 19/57/54 20/56/54 24/58/54 23/59/54
f 23/59/55 24/58/55 22/60/55 21/61/55
f 21/61/56 22/60/56 18/55/56 17/54/56
f 45/48/47 26/51/50 32/62/57 49/63/57
f 41/40/39 46/27/58 28/64/59 14/41/40
f 15/65/60 14/66/61 55/24/62 54/14/63
f 54/14/14 55/24/24 5/23/23 6/15/15
f 36/18/64 34/67/65 61/68/66 64/19/64
f 50/30/67 47/69/68 34/70/69 36/71/67
f 47/69/68 48/72/70 33/73/71 34/70/69
f 48/72/70 49/63/72 32/62/72 33/73/71
f 34/67/65 33/47/46 62/46/45 61/68/66
f 61/68/73 62/46/74 31/74/75 30/75/76
f 31/76/77 35/77/78 49/63/78 48/72/79
f 30/78/80 31/76/77 48/72/79 47/69/81
f 29/29/82 30/78/80 47/69/81 50/30/82
f 5/79/83 27/28/28 46/27/27 41/40/84
f 25/80/85 45/48/86 49/63/87 35/77/87
f 9/81/88 10/82/89 44/5/90 43/52/91
f 8/83/92 9/81/88 43/52/91 42/49/93
f 25/80/85 8/83/92 42/49/93 45/48/86
f 6/84/94 5/79/83 41/40/84 40/38/95
f 7/85/96 6/84/94 40/38/95 39/35/97
f 1/86/98 7/85/96 39/35/97 37/34/98
f 28/64/59 46/27/58 50/30/99 36/71/99
f 10/82/89 2/87/100 38/6/100 44/5/90
f 63/44/101 35/43/101 31/74/75 62/46/74
f 64/19/102 61/68/73 30/75/76 29/22/102
f 26/31/30 59/33/33 63/44/103 32/45/103
f 13/32/31 12/9/7 57/10/8 56/25/32
f 28/17/17 60/20/19 55/24/62 14/66/61
f 59/33/41 56/25/25 8/26/26 25/42/42
f 16/88/104 15/65/60 54/14/63 53/13/105
f 52/2/106 2/89/106 10/11/11 58/3/10
f 51/90/107 53/13/13 7/16/16 1/91/107
f 4/1/108 38/92/108 2/89/108 52/93/108
f 37/94/109 3/95/109 51/96/109 1/91/109
f 3/95/110 16/88/104 53/13/105 51/90/110
