{
    "asset" : {
        "generator" : "Khronos glTF Blender I/O v3.4.50",
        "version" : "2.0"
    },
    "scene" : 0,
    "scenes" : [
        {
            "name" : "Scene",
            "nodes" : [
                2
            ]
        }
    ],
    "nodes" : [
        {
            "mesh" : 0,
            "name" : "cannon_blue",
            "translation" : [
                3.814697265625e-06,
                0.48273348808288574,
                0.000812530517578125
            ]
        },
        {
            "children" : [
                0
            ],
            "mesh" : 1,
            "name" : "cannon_turret_blue",
            "translation" : [
                0,
                1.4000000953674316,
                0
            ]
        },
        {
            "children" : [
                1
            ],
            "mesh" : 2,
            "name" : "building_tower_cannon_blue"
        }
    ],
    "materials" : [
        {
            "name" : "hexagons_medieval",
            "pbrMetallicRoughness" : {
                "baseColorTexture" : {
                    "index" : 0
                },
                "metallicFactor" : 0,
                "roughnessFactor" : 0.5
            }
        }
    ],
    "meshes" : [
        {
            "name" : "cannon_blue",
            "primitives" : [
                {
                    "attributes" : {
                        "POSITION" : 0,
                        "TEXCOORD_0" : 1,
                        "NORMAL" : 2
                    },
                    "indices" : 3,
                    "material" : 0
                }
            ]
        },
        {
            "name" : "cannon_turret_blue",
            "primitives" : [
                {
                    "attributes" : {
                        "POSITION" : 4,
                        "TEXCOORD_0" : 5,
                        "NORMAL" : 6
                    },
                    "indices" : 7,
                    "material" : 0
                }
            ]
        },
        {
            "name" : "building_tower_cannon_blue",
            "primitives" : [
                {
                    "attributes" : {
                        "POSITION" : 8,
                        "TEXCOORD_0" : 9,
                        "NORMAL" : 10
                    },
                    "indices" : 11,
                    "material" : 0
                }
            ]
        }
    ],
    "textures" : [
        {
            "sampler" : 0,
            "source" : 0
        }
    ],
    "images" : [
        {
            "mimeType" : "image/png",
            "name" : "hexagons_medieval",
            "uri" : "hexagons_medieval.png"
        }
    ],
    "accessors" : [
        {
            "bufferView" : 0,
            "componentType" : 5126,
            "count" : 446,
            "max" : [
                0.15699239075183868,
                0.15699245035648346,
                0.5445077419281006
            ],
            "min" : [
                -0.15699242055416107,
                -0.15699242055416107,
                -0.4352589547634125
            ],
            "type" : "VEC3"
        },
        {
            "bufferView" : 1,
            "componentType" : 5126,
            "count" : 446,
            "type" : "VEC2"
        },
        {
            "bufferView" : 2,
            "componentType" : 5126,
            "count" : 446,
            "type" : "VEC3"
        },
        {
            "bufferView" : 3,
            "componentType" : 5123,
            "count" : 1656,
            "type" : "SCALAR"
        },
        {
            "bufferView" : 4,
            "componentType" : 5126,
            "count" : 1166,
            "max" : [
                0.3955053687095642,
                0.5640908479690552,
                0.3150000274181366
            ],
            "min" : [
                -0.3150000274181366,
                -1.1920928955078125e-07,
                -0.3149999976158142
            ],
            "type" : "VEC3"
        },
        {
            "bufferView" : 5,
            "componentType" : 5126,
            "count" : 1166,
            "type" : "VEC2"
        },
        {
            "bufferView" : 6,
            "componentType" : 5126,
            "count" : 1166,
            "type" : "VEC3"
        },
        {
            "bufferView" : 7,
            "componentType" : 5123,
            "count" : 2394,
            "type" : "SCALAR"
        },
        {
            "bufferView" : 8,
            "componentType" : 5126,
            "count" : 2265,
            "max" : [
                0.4648962616920471,
                1.5,
                0.5800000429153442
            ],
            "min" : [
                -0.4648962616920471,
                0,
                -0.5311260223388672
            ],
            "type" : "VEC3"
        },
        {
            "bufferView" : 9,
            "componentType" : 5126,
            "count" : 2265,
            "type" : "VEC2"
        },
        {
            "bufferView" : 10,
            "componentType" : 5126,
            "count" : 2265,
            "type" : "VEC3"
        },
        {
            "bufferView" : 11,
            "componentType" : 5123,
            "count" : 4614,
            "type" : "SCALAR"
        }
    ],
    "bufferViews" : [
        {
            "buffer" : 0,
            "byteLength" : 5352,
            "byteOffset" : 0,
            "target" : 34962
        },
        {
            "buffer" : 0,
            "byteLength" : 3568,
            "byteOffset" : 5352,
            "target" : 34962
        },
        {
            "buffer" : 0,
            "byteLength" : 5352,
            "byteOffset" : 8920,
            "target" : 34962
        },
        {
            "buffer" : 0,
            "byteLength" : 3312,
            "byteOffset" : 14272,
            "target" : 34963
        },
        {
            "buffer" : 0,
            "byteLength" : 13992,
            "byteOffset" : 17584,
            "target" : 34962
        },
        {
            "buffer" : 0,
            "byteLength" : 9328,
            "byteOffset" : 31576,
            "target" : 34962
        },
        {
            "buffer" : 0,
            "byteLength" : 13992,
            "byteOffset" : 40904,
            "target" : 34962
        },
        {
            "buffer" : 0,
            "byteLength" : 4788,
            "byteOffset" : 54896,
            "target" : 34963
        },
        {
            "buffer" : 0,
            "byteLength" : 27180,
            "byteOffset" : 59684,
            "target" : 34962
        },
        {
            "buffer" : 0,
            "byteLength" : 18120,
            "byteOffset" : 86864,
            "target" : 34962
        },
        {
            "buffer" : 0,
            "byteLength" : 27180,
            "byteOffset" : 104984,
            "target" : 34962
        },
        {
            "buffer" : 0,
            "byteLength" : 9228,
            "byteOffset" : 132164,
            "target" : 34963
        }
    ],
    "samplers" : [
        {
            "magFilter" : 9729,
            "minFilter" : 9987
        }
    ],
    "buffers" : [
        {
            "byteLength" : 141392,
            "uri" : "building_tower_cannon_blue.bin"
        }
    ]
}
