# Blender v3.4.1 OBJ File: 'Medieval_Hexagons_Export_1.0_WorldOrigin.blend'
# www.blender.org
mtllib unit_green_accent.mtl
o unit_green_accent
v 0.000000 0.050000 -0.100000
v 0.050000 0.050000 -0.086603
v 0.086603 0.050000 -0.050000
v 0.100000 0.050000 0.000000
v 0.086603 0.050000 0.050000
v 0.050000 0.050000 0.086603
v -0.000000 0.050000 0.100000
v -0.050000 0.050000 0.086603
v -0.086603 0.050000 0.050000
v -0.100000 0.050000 0.000000
v -0.086603 0.050000 -0.050000
v -0.050000 0.050000 -0.086603
v 0.000003 0.329919 -0.040368
v 0.000003 0.300368 -0.069919
v 0.000003 0.260000 -0.080736
v 0.000003 0.190081 -0.040368
v 0.020187 0.329919 -0.034960
v 0.034963 0.300368 -0.060552
v 0.040371 0.260000 -0.069919
v 0.034963 0.219632 -0.060552
v 0.020187 0.190081 -0.034960
v 0.034963 0.329919 -0.020184
v 0.060555 0.300368 -0.034960
v 0.069922 0.260000 -0.040368
v 0.060555 0.219632 -0.034960
v 0.034963 0.190081 -0.020184
v 0.040371 0.329919 0.000000
v 0.069922 0.300368 0.000000
v 0.080739 0.260000 0.000000
v 0.069922 0.219632 0.000000
v 0.040371 0.190081 0.000000
v 0.034963 0.329919 0.020184
v 0.060555 0.300368 0.034960
v 0.069922 0.260000 0.040368
v 0.060555 0.219632 0.034960
v 0.034963 0.190081 0.020184
v 0.020187 0.329919 0.034960
v 0.034963 0.300368 0.060552
v 0.040371 0.260000 0.069919
v 0.034963 0.219632 0.060552
v 0.020187 0.190081 0.034960
v 0.000003 0.340736 0.000000
v 0.000003 0.329919 0.040368
v 0.000003 0.300368 0.069919
v 0.000003 0.260000 0.080736
v 0.000003 0.219632 0.069919
v 0.000003 0.190081 0.040368
v -0.020181 0.329919 0.034960
v -0.034957 0.300368 0.060552
v -0.040365 0.260000 0.069919
v -0.034957 0.219632 0.060552
v -0.020181 0.190081 0.034960
v -0.034957 0.329919 0.020184
v -0.060549 0.300368 0.034960
v -0.069916 0.260000 0.040368
v -0.060549 0.219632 0.034960
v -0.034957 0.190081 0.020184
v -0.040365 0.329919 0.000000
v -0.069916 0.300368 0.000000
v -0.080733 0.260000 0.000000
v -0.069916 0.219632 0.000000
v -0.040365 0.190081 0.000000
v -0.034957 0.329919 -0.020184
v -0.060549 0.300368 -0.034960
v -0.069916 0.260000 -0.040368
v -0.060549 0.219632 -0.034960
v -0.034957 0.190081 -0.020184
v -0.020181 0.329919 -0.034960
v -0.034957 0.300368 -0.060552
v -0.040365 0.260000 -0.069919
v -0.034957 0.219632 -0.060552
v -0.020181 0.190081 -0.034960
v 0.000003 0.219632 -0.069919
v -0.000000 0.000000 0.000000
v -0.000000 0.010000 -0.100000
v 0.050000 0.010000 -0.086603
v 0.086603 0.010000 -0.050000
v 0.100000 0.010000 0.000000
v 0.086603 0.010000 0.050000
v 0.050000 0.010000 0.086603
v -0.000000 0.010000 0.100000
v -0.050000 0.010000 0.086603
v -0.086603 0.010000 0.050000
v -0.100000 0.010000 -0.000000
v -0.086603 0.010000 -0.050000
v -0.050000 0.010000 -0.086603
v 0.044824 0.000000 -0.077637
v -0.000000 0.000000 -0.089647
v 0.077637 0.000000 -0.044824
v 0.089647 0.000000 0.000000
v 0.077637 0.000000 0.044824
v 0.044824 -0.000000 0.077637
v -0.000000 -0.000000 0.089647
v -0.044824 -0.000000 0.077637
v -0.077637 0.000000 0.044824
v -0.089647 0.000000 -0.000000
v -0.077637 0.000000 -0.044824
v -0.044824 0.000000 -0.077637
vt 0.441619 0.145334
vt 0.446772 0.145334
vt 0.464780 0.111185
vt 0.452016 0.111185
vt 0.448658 0.145334
vt 0.469452 0.111185
vt 0.446772 0.145334
vt 0.464780 0.111185
vt 0.441619 0.145334
vt 0.452016 0.111185
vt 0.434581 0.145334
vt 0.434580 0.111185
vt 0.427542 0.145334
vt 0.417144 0.111185
vt 0.422390 0.145334
vt 0.404380 0.111185
vt 0.420504 0.145334
vt 0.399708 0.111185
vt 0.422390 0.145334
vt 0.404380 0.111185
vt 0.427542 0.145334
vt 0.417144 0.111185
vt 0.434581 0.145334
vt 0.434580 0.111185
vt 0.452016 0.101434
vt 0.464780 0.101434
vt 0.434580 0.101434
vt 0.417144 0.101434
vt 0.464780 0.101434
vt 0.452016 0.101434
vt 0.469452 0.101434
vt 0.404380 0.101434
vt 0.399708 0.101434
vt 0.404380 0.101434
vt 0.417144 0.101434
vt 0.434580 0.101434
vt 0.684581 0.623488
vt 0.684581 0.652538
vt 0.696772 0.652538
vt 0.691619 0.623488
vt 0.684581 0.662379
vt 0.684581 0.672220
vt 0.696772 0.672220
vt 0.698658 0.662379
vt 0.684581 0.701270
vt 0.684581 0.703907
vt 0.691619 0.701270
vt 0.696772 0.701270
vt 0.708963 0.662379
vt 0.705696 0.652538
vt 0.705696 0.672220
vt 0.696772 0.623488
vt 0.712735 0.662379
vt 0.708963 0.652538
vt 0.698658 0.701270
vt 0.708963 0.672220
vt 0.698658 0.623488
vt 0.708963 0.662379
vt 0.705696 0.652538
vt 0.696772 0.701270
vt 0.705696 0.672220
vt 0.696772 0.623488
vt 0.698658 0.662379
vt 0.696772 0.652538
vt 0.691619 0.701270
vt 0.696772 0.672220
vt 0.691619 0.623488
vt 0.684581 0.662379
vt 0.684581 0.652538
vt 0.684581 0.701270
vt 0.684581 0.672220
vt 0.684581 0.623488
vt 0.677542 0.701270
vt 0.672390 0.672220
vt 0.672390 0.652538
vt 0.677542 0.623488
vt 0.670504 0.662379
vt 0.663465 0.652538
vt 0.672390 0.623488
vt 0.663465 0.672220
vt 0.660199 0.662379
vt 0.672390 0.701270
vt 0.660199 0.652538
vt 0.670504 0.623488
vt 0.660199 0.672220
vt 0.656427 0.662379
vt 0.670504 0.701270
vt 0.663465 0.652538
vt 0.672390 0.623488
vt 0.663465 0.672220
vt 0.660199 0.662379
vt 0.672390 0.701270
vt 0.672390 0.652538
vt 0.677542 0.623488
vt 0.672390 0.672220
vt 0.670504 0.662379
vt 0.677542 0.701270
vt 0.434580 0.090511
vt 0.452016 0.090511
vt 0.450211 0.088073
vt 0.434580 0.088073
vt 0.464780 0.090511
vt 0.461653 0.088073
vt 0.469452 0.090511
vt 0.465842 0.088073
vt 0.464780 0.090511
vt 0.461653 0.088073
vt 0.452016 0.090511
vt 0.450211 0.088073
vt 0.434580 0.090511
vt 0.434580 0.088073
vt 0.417144 0.090511
vt 0.418949 0.088073
vt 0.404380 0.090511
vt 0.407506 0.088073
vt 0.399708 0.090511
vt 0.403318 0.088073
vt 0.404380 0.090511
vt 0.407506 0.088073
vt 0.417144 0.090511
vt 0.418949 0.088073
vt 0.434580 0.077150
vt 0.434580 0.077150
vt 0.450211 0.077150
vt 0.449533 0.077150
vt 0.461653 0.077150
vt 0.460480 0.077150
vt 0.465842 0.077150
vt 0.464487 0.077150
vt 0.461653 0.077150
vt 0.450211 0.077150
vt 0.434580 0.077150
vt 0.418949 0.077150
vt 0.419626 0.077150
vt 0.407506 0.077150
vt 0.408680 0.077150
vt 0.403318 0.077150
vt 0.404673 0.077150
vt 0.407506 0.077150
vt 0.418949 0.077150
vn 0.4601 0.3917 -0.7968
vn 0.7968 0.3917 -0.4601
vn 0.8496 0.1937 -0.4905
vn 0.4905 0.1937 -0.8496
vn 0.9201 0.3917 0.0000
vn 0.9811 0.1937 0.0000
vn 0.7968 0.3917 0.4601
vn 0.8496 0.1937 0.4905
vn 0.4601 0.3917 0.7968
vn 0.4905 0.1937 0.8496
vn 0.0000 0.3917 0.9201
vn -0.0000 0.1937 0.9811
vn -0.4600 0.3917 0.7968
vn -0.4905 0.1937 0.8496
vn -0.7968 0.3917 0.4600
vn -0.8496 0.1937 0.4905
vn -0.9201 0.3917 0.0000
vn -0.9811 0.1937 -0.0000
vn -0.7968 0.3917 -0.4600
vn -0.8496 0.1937 -0.4905
vn -0.4600 0.3917 -0.7968
vn -0.4905 0.1937 -0.8496
vn 0.0000 0.3917 -0.9201
vn -0.0000 0.1937 -0.9811
vn 0.4647 -0.3692 0.8048
vn 0.8660 -0.0000 0.5000
vn 0.0000 0.0000 -1.0000
vn -0.5000 0.0000 -0.8660
vn 0.8660 0.0000 -0.5000
vn 0.5000 0.0000 -0.8660
vn 1.0000 0.0000 0.0000
vn -0.8660 0.0000 -0.5000
vn -0.9293 -0.3692 -0.0000
vn -0.8048 -0.3692 0.4647
vn -0.4647 -0.3692 0.8048
vn -0.0000 -0.3692 0.9293
vn -0.0000 -0.7071 -0.7071
vn -0.0000 -0.4823 -0.8760
vn 0.4380 -0.4823 -0.7586
vn 0.3536 -0.7071 -0.6124
vn -0.0000 0.4823 -0.8760
vn 0.4380 0.4823 -0.7586
vn -0.0000 0.8474 -0.5309
vn -0.0000 1.0000 0.0000
vn 0.2654 0.8474 -0.4598
vn 0.4598 0.8474 -0.2654
vn 0.7586 -0.4823 -0.4380
vn 0.7586 0.4823 -0.4380
vn 0.6124 -0.7071 -0.3536
vn 0.8760 -0.4823 -0.0000
vn 0.5309 0.8474 0.0000
vn 0.8760 0.4823 0.0000
vn 0.7071 -0.7071 0.0000
vn 0.7586 -0.4823 0.4380
vn 0.4598 0.8474 0.2654
vn 0.7586 0.4823 0.4380
vn 0.6124 -0.7071 0.3536
vn 0.5000 -0.0000 0.8660
vn 0.4380 -0.4823 0.7586
vn 0.2654 0.8474 0.4598
vn 0.4380 0.4823 0.7586
vn 0.3536 -0.7071 0.6124
vn -0.0000 -0.0000 1.0000
vn -0.0000 -0.4823 0.8760
vn -0.0000 0.8474 0.5309
vn -0.0000 0.4823 0.8760
vn -0.0000 -0.7071 0.7071
vn -0.2654 0.8474 0.4598
vn -0.4380 0.4823 0.7586
vn -0.4380 -0.4823 0.7586
vn -0.3536 -0.7071 0.6124
vn -0.5000 -0.0000 0.8660
vn -0.7586 -0.4823 0.4380
vn -0.6124 -0.7071 0.3536
vn -0.7586 0.4823 0.4380
vn -0.8660 -0.0000 0.5000
vn -0.4598 0.8474 0.2655
vn -0.8760 -0.4823 -0.0000
vn -0.7071 -0.7071 -0.0000
vn -0.8760 0.4823 -0.0000
vn -1.0000 -0.0000 -0.0000
vn -0.5309 0.8474 0.0000
vn -0.7586 -0.4823 -0.4380
vn -0.6124 -0.7071 -0.3536
vn -0.7586 0.4823 -0.4380
vn -0.4598 0.8474 -0.2654
vn -0.4380 -0.4823 -0.7586
vn -0.3536 -0.7071 -0.6124
vn -0.4380 0.4823 -0.7586
vn -0.2655 0.8474 -0.4598
vn -0.0000 -0.7193 -0.6947
vn 0.3474 -0.7193 -0.6017
vn 0.2129 -0.9049 -0.3687
vn -0.0000 -0.9049 -0.4257
vn 0.6017 -0.7193 -0.3474
vn 0.3687 -0.9049 -0.2129
vn 0.6947 -0.7193 -0.0000
vn 0.4257 -0.9049 -0.0000
vn 0.6017 -0.7193 0.3474
vn 0.3687 -0.9049 0.2129
vn 0.2129 -0.9049 0.3687
vn -0.0000 -0.9049 0.4257
vn -0.2129 -0.9049 0.3687
vn -0.3687 -0.9049 0.2129
vn -0.4257 -0.9049 -0.0000
vn -0.6017 -0.7193 -0.3474
vn -0.3687 -0.9049 -0.2129
vn -0.3474 -0.7193 -0.6017
vn -0.2129 -0.9049 -0.3687
vn 0.0000 -1.0000 -0.0000
usemtl hexagons_medieval
s 1
f 21/1/1 26/2/2 3/3/3 2/4/4
f 26/2/2 31/5/5 4/6/6 3/3/3
f 31/5/5 36/7/7 5/8/8 4/6/6
f 36/7/7 41/9/9 6/10/10 5/8/8
f 41/9/9 47/11/11 7/12/12 6/10/10
f 47/11/11 52/13/13 8/14/14 7/12/12
f 52/13/13 57/15/15 9/16/16 8/14/14
f 57/15/15 62/17/17 10/18/18 9/16/16
f 62/17/17 67/19/19 11/20/20 10/18/18
f 67/19/19 72/21/21 12/22/22 11/20/20
f 72/21/21 16/23/23 1/24/24 12/22/22
f 5/8/8 6/10/10 80/25/25 79/26/26
f 12/22/22 1/24/24 75/27/27 86/28/28
f 2/4/4 3/3/3 77/29/29 76/30/30
f 4/6/6 5/8/8 79/26/26 78/31/31
f 3/3/3 4/6/6 78/31/31 77/29/29
f 11/20/20 12/22/22 86/28/28 85/32/32
f 10/18/18 11/20/20 85/32/32 84/33/33
f 9/16/16 10/18/18 84/33/33 83/34/34
f 8/14/14 9/16/16 83/34/34 82/35/35
f 7/12/12 8/14/14 82/35/35 81/36/36
f 6/10/10 7/12/12 81/36/36 80/25/25
f 16/37/37 73/38/38 20/39/39 21/40/40
f 15/41/27 14/42/41 18/43/42 19/44/30
f 13/45/43 42/46/44 17/47/45
f 73/38/38 15/41/27 19/44/30 20/39/39
f 14/42/41 13/45/43 17/47/45 18/43/42
f 17/47/45 42/46/44 22/48/46
f 20/39/39 19/44/30 24/49/29 25/50/47
f 18/43/42 17/47/45 22/48/46 23/51/48
f 21/40/40 20/39/39 25/50/47 26/52/49
f 19/44/30 18/43/42 23/51/48 24/49/29
f 25/50/47 24/49/29 29/53/31 30/54/50
f 23/51/48 22/48/46 27/55/51 28/56/52
f 26/52/49 25/50/47 30/54/50 31/57/53
f 24/49/29 23/51/48 28/56/52 29/53/31
f 22/48/46 42/46/44 27/55/51
f 30/54/50 29/53/31 34/58/26 35/59/54
f 28/56/52 27/55/51 32/60/55 33/61/56
f 31/57/53 30/54/50 35/59/54 36/62/57
f 29/53/31 28/56/52 33/61/56 34/58/26
f 27/55/51 42/46/44 32/60/55
f 35/59/54 34/58/26 39/63/58 40/64/59
f 33/61/56 32/60/55 37/65/60 38/66/61
f 36/62/57 35/59/54 40/64/59 41/67/62
f 34/58/26 33/61/56 38/66/61 39/63/58
f 32/60/55 42/46/44 37/65/60
f 40/64/59 39/63/58 45/68/63 46/69/64
f 38/66/61 37/65/60 43/70/65 44/71/66
f 41/67/62 40/64/59 46/69/64 47/72/67
f 39/63/58 38/66/61 44/71/66 45/68/63
f 37/65/60 42/46/44 43/70/65
f 44/71/66 43/70/65 48/73/68 49/74/69
f 47/72/67 46/69/64 51/75/70 52/76/71
f 45/68/63 44/71/66 49/74/69 50/77/72
f 43/70/65 42/46/44 48/73/68
f 46/69/64 45/68/63 50/77/72 51/75/70
f 52/76/71 51/75/70 56/78/73 57/79/74
f 50/77/72 49/74/69 54/80/75 55/81/76
f 48/73/68 42/46/44 53/82/77
f 51/75/70 50/77/72 55/81/76 56/78/73
f 49/74/69 48/73/68 53/82/77 54/80/75
f 57/79/74 56/78/73 61/83/78 62/84/79
f 55/81/76 54/80/75 59/85/80 60/86/81
f 53/82/77 42/46/44 58/87/82
f 56/78/73 55/81/76 60/86/81 61/83/78
f 54/80/75 53/82/77 58/87/82 59/85/80
f 62/84/79 61/83/78 66/88/83 67/89/84
f 60/86/81 59/85/80 64/90/85 65/91/32
f 58/87/82 42/46/44 63/92/86
f 61/83/78 60/86/81 65/91/32 66/88/83
f 59/85/80 58/87/82 63/92/86 64/90/85
f 67/89/84 66/88/83 71/93/87 72/94/88
f 65/91/32 64/90/85 69/95/89 70/96/28
f 63/92/86 42/46/44 68/97/90
f 66/88/83 65/91/32 70/96/28 71/93/87
f 64/90/85 63/92/86 68/97/90 69/95/89
f 70/96/28 69/95/89 14/42/41 15/41/27
f 68/97/90 42/46/44 13/45/43
f 71/93/87 70/96/28 15/41/27 73/38/38
f 69/95/89 68/97/90 13/45/43 14/42/41
f 72/94/88 71/93/87 73/38/38 16/37/37
f 16/23/23 21/1/1 2/4/4 1/24/24
f 75/98/91 76/99/92 87/100/93 88/101/94
f 76/99/92 77/102/95 89/103/96 87/100/93
f 77/102/95 78/104/97 90/105/98 89/103/96
f 78/104/97 79/106/99 91/107/100 90/105/98
f 79/106/99 80/108/25 92/109/101 91/107/100
f 80/108/25 81/110/36 93/111/102 92/109/101
f 81/110/36 82/112/35 94/113/103 93/111/102
f 82/112/35 83/114/34 95/115/104 94/113/103
f 83/114/34 84/116/33 96/117/105 95/115/104
f 84/116/33 85/118/106 97/119/107 96/117/105
f 85/118/106 86/120/108 98/121/109 97/119/107
f 86/120/108 75/98/91 88/101/94 98/121/109
f 1/24/24 2/4/4 76/30/30 75/27/27
f 74/122/110 88/123/94 87/124/93
f 74/125/110 87/124/93 89/126/96
f 74/127/110 89/126/96 90/128/98
f 74/129/110 90/128/98 91/130/100
f 74/127/110 91/130/100 92/131/101
f 74/125/110 92/131/101 93/132/102
f 74/122/110 93/132/102 94/133/103
f 74/134/110 94/133/103 95/135/104
f 74/136/110 95/135/104 96/137/105
f 74/138/110 96/137/105 97/139/107
f 74/136/110 97/139/107 98/140/109
f 74/134/110 98/140/109 88/123/94
