# Blender v3.4.1 OBJ File: 'Medieval_Hexagons_Export_1.0_WorldOrigin.blend'
# www.blender.org
mtllib banner_yellow_full.mtl
o banner_yellow_full_banner_yellow_full0
v -0.014893 0.000000 -0.014893
v -0.014893 0.500000 -0.014893
v 0.014893 0.000000 -0.014893
v 0.014893 0.500000 -0.014893
v -0.014893 -0.000000 0.014894
v -0.014893 0.500000 0.014894
v 0.014893 -0.000000 0.014894
v 0.014893 0.500000 0.014894
v 0.083554 0.229869 0.015238
v 0.083554 0.466942 0.015238
v 0.000000 0.245405 0.042968
v 0.046439 0.421396 0.042968
v -0.046439 0.246313 0.042968
v -0.046439 0.421396 0.042968
v 0.000000 0.421377 0.042968
v 0.046439 0.246313 0.042968
v 0.000000 0.188888 0.042968
v 0.083554 0.466942 0.042968
v -0.083554 0.229869 0.042968
v -0.083554 0.466942 0.042968
v 0.000000 0.466942 0.042968
v 0.083554 0.229869 0.042968
v 0.000000 0.130595 0.042968
v 0.000000 0.130595 0.015238
v -0.083554 0.466942 0.015238
v -0.083554 0.229869 0.015238
vt 0.289700 0.107031
vt 0.289700 0.151081
vt 0.298644 0.151081
vt 0.298644 0.107031
vt 0.298644 0.094379
vt 0.298644 0.138428
vt 0.298644 0.138193
vt 0.298644 0.094143
vt 0.298644 0.106795
vt 0.298644 0.150845
vt 0.289700 0.150845
vt 0.289700 0.106795
vt 0.289700 0.094143
vt 0.289700 0.138193
vt 0.289700 0.138428
vt 0.289700 0.094379
vt 0.298644 0.176149
vt 0.298644 0.176385
vt 0.289700 0.176385
vt 0.289700 0.176149
vt 0.346142 0.144066
vt 0.312043 0.144066
vt 0.312043 0.151242
vt 0.330996 0.151242
vt 0.312043 0.153004
vt 0.277944 0.153004
vt 0.293091 0.160180
vt 0.312043 0.160180
vt 0.330996 0.094724
vt 0.346142 0.072526
vt 0.312043 0.071914
vt 0.312043 0.085786
vt 0.293091 0.085786
vt 0.277944 0.081464
vt 0.293091 0.103663
vt 0.312043 0.142303
vt 0.293091 0.142303
vt 0.330996 0.076848
vt 0.330996 0.133365
vt 0.312043 0.133365
vt 0.312043 0.076848
vt 0.312043 0.089791
vt 0.312043 0.056506
vt 0.312043 0.062976
vt 0.312043 0.080853
vt 0.312043 0.047568
vt 0.346142 0.072526
vt 0.277944 0.081464
vt 0.277944 0.153004
vt 0.346142 0.144066
vt 0.312043 0.047568
vt 0.312043 0.056506
vn 0.0000 0.0000 -1.0000
vn 1.0000 -0.0000 0.0000
vn 0.0000 -0.0000 1.0000
vn -1.0000 0.0000 0.0000
vn 0.0000 1.0000 0.0000
vn 0.0000 -1.0000 -0.0000
vn 0.9394 -0.3427 0.0000
vn 0.7651 -0.6439 0.0000
vn -0.9394 -0.3427 0.0000
vn -0.7651 -0.6439 -0.0000
usemtl hexagons_medieval
s 1
f 1/1/1 2/2/1 4/3/1 3/4/1
f 3/5/2 4/6/2 8/7/2 7/8/2
f 7/9/3 8/10/3 6/11/3 5/12/3
f 5/13/4 6/14/4 2/15/4 1/16/4
f 8/17/5 4/18/5 2/19/5 6/20/5
f 1/16/6 3/5/6 7/9/6 5/13/6
f 18/21/3 21/22/3 15/23/3 12/24/3
f 21/25/3 20/26/3 14/27/3 15/28/3
f 12/24/3 16/29/3 22/30/3 18/21/3
f 17/31/3 11/32/3 13/33/3
f 14/27/3 20/26/3 19/34/3 13/35/3
f 11/32/3 15/36/3 14/37/3 13/33/3
f 16/38/3 12/39/3 15/40/3 11/41/3
f 17/42/3 13/35/3 19/34/3 23/43/3
f 17/44/3 16/38/3 11/41/3
f 16/29/3 17/45/3 23/46/3 22/30/3
f 9/47/1 26/48/1 25/49/1 10/50/1
f 22/30/7 9/47/7 10/50/2 18/21/2
f 23/46/8 24/51/8 9/47/7 22/30/7
f 20/26/4 25/49/4 26/48/9 19/34/9
f 26/48/1 9/47/1 24/52/1
f 19/34/9 26/48/9 24/52/10 23/43/10
f 21/25/5 25/49/5 20/26/5
f 10/50/5 25/49/5 21/25/5
f 18/21/5 10/50/5 21/25/5
