# Blender v3.4.1 OBJ File: 'Medieval_Hexagons_Export_1.0_WorldOrigin.blend'
# www.blender.org
mtllib shield_yellow_full.mtl
o shield_yellow_full_shield_yellow_full0
v -0.060173 0.053093 -0.000653
v -0.077962 0.071100 -0.036361
v 0.060173 0.053093 -0.000653
v 0.077962 0.071100 -0.036361
v -0.000000 -0.124038 -0.014944
v -0.000000 -0.093885 0.017672
v 0.000000 -0.092843 -0.014944
v -0.060173 -0.020804 -0.000653
v -0.033582 -0.072385 0.006402
v -0.052204 -0.049994 0.001483
v -0.042534 -0.092843 -0.026868
v -0.077962 -0.024467 -0.036361
v -0.067496 -0.062800 -0.033556
v 0.033582 -0.072385 0.006402
v 0.060173 -0.020804 -0.000653
v 0.052204 -0.049994 0.001483
v 0.077962 -0.024467 -0.036361
v 0.042534 -0.092843 -0.026868
v 0.067496 -0.062800 -0.033556
v -0.042534 0.085515 -0.026868
v 0.042534 0.085515 -0.026868
v 0.000000 -0.062800 -0.014944
v 0.000000 0.092837 -0.014944
v 0.043725 0.059784 0.003736
v -0.043725 0.059784 0.003736
v 0.000000 -0.024467 -0.014944
v 0.000000 0.066184 0.017672
v 0.042534 -0.024467 -0.026868
v 0.042534 -0.062800 -0.026868
v -0.042534 -0.024467 -0.026868
v -0.042534 -0.062800 -0.026868
v -0.050269 -0.092843 0.002001
v -0.075232 -0.062800 -0.004687
v -0.085697 -0.024467 -0.007492
v 0.075232 -0.062800 -0.004687
v 0.050269 -0.092843 0.002001
v 0.085697 -0.024467 -0.007492
v -0.000000 -0.124038 0.017672
v -0.085697 0.071100 -0.007492
v 0.085697 0.071100 -0.007492
v 0.050269 0.085515 0.002001
v 0.000000 0.092837 0.017672
v -0.050269 0.085515 0.002001
v 0.000000 0.053093 0.017672
v 0.000000 -0.020804 0.017672
v 0.000000 -0.049994 0.017672
v 0.000000 -0.072385 0.017672
vt 0.311275 0.086704
vt 0.318469 0.086704
vt 0.311275 0.076298
vt 0.321485 0.087329
vt 0.321485 0.120430
vt 0.323714 0.120430
vt 0.323714 0.087329
vt 0.321485 0.171039
vt 0.311275 0.176032
vt 0.313504 0.176032
vt 0.323714 0.171039
vt 0.286759 0.138075
vt 0.299017 0.140612
vt 0.299017 0.099981
vt 0.286759 0.099981
vt 0.274319 0.087329
vt 0.274319 0.120430
vt 0.276549 0.120430
vt 0.276549 0.087329
vt 0.286759 0.176032
vt 0.276549 0.171039
vt 0.274319 0.171039
vt 0.284530 0.176032
vt 0.299017 0.052841
vt 0.311275 0.063646
vt 0.313504 0.063646
vt 0.299017 0.052841
vt 0.286759 0.063646
vt 0.284530 0.063646
vt 0.277336 0.074052
vt 0.279565 0.074052
vt 0.318469 0.074052
vt 0.320698 0.074052
vt 0.311275 0.099981
vt 0.321485 0.099981
vt 0.299017 0.076298
vt 0.299017 0.065494
vt 0.299017 0.178568
vt 0.299017 0.178568
vt 0.311275 0.138075
vt 0.321485 0.133083
vt 0.299017 0.086704
vt 0.286759 0.086704
vt 0.286759 0.076298
vt 0.299017 0.159052
vt 0.281675 0.159052
vt 0.281675 0.127273
vt 0.299017 0.127273
vt 0.283972 0.114720
vt 0.299017 0.114720
vt 0.289339 0.105091
vt 0.299017 0.105091
vt 0.311669 0.064428
vt 0.321347 0.105091
vt 0.311669 0.073674
vt 0.276549 0.099981
vt 0.279565 0.086704
vt 0.276549 0.133083
vt 0.299557 0.096036
vt 0.294190 0.103792
vt 0.287553 0.099356
vt 0.294747 0.088950
vt 0.291893 0.113902
vt 0.284537 0.112634
vt 0.324280 0.103792
vt 0.318913 0.096036
vt 0.323722 0.088950
vt 0.330916 0.099356
vt 0.326576 0.113902
vt 0.333932 0.112634
vt 0.309235 0.088589
vt 0.309235 0.078146
vt 0.291893 0.139498
vt 0.284537 0.145735
vt 0.326576 0.139498
vt 0.333932 0.145735
vt 0.309235 0.144032
vt 0.321836 0.141815
vt 0.323722 0.150728
vt 0.309235 0.153264
vt 0.296634 0.141815
vt 0.294747 0.150728
vt 0.311669 0.127635
vt 0.329011 0.159052
vt 0.324270 0.161929
vt 0.326714 0.114720
vt 0.311669 0.083303
vt 0.329011 0.127273
vt 0.311669 0.095856
vt 0.299017 0.164681
vt 0.286416 0.161929
vt 0.299017 0.095845
vt 0.311669 0.133264
vn -0.2644 0.0000 -0.9644
vn -0.2588 0.0000 -0.9659
vn -0.2672 0.0000 -0.9636
vn 0.9568 -0.1373 -0.2564
vn 0.9659 0.0000 -0.2588
vn 0.3533 0.9307 -0.0947
vn 0.2538 0.9656 -0.0573
vn 0.2521 0.9660 -0.0567
vn 0.2654 0.0000 -0.9641
vn 0.0000 0.0000 -1.0000
vn 0.2644 0.0000 -0.9644
vn -0.9568 -0.1373 -0.2564
vn -0.9659 0.0000 -0.2588
vn -0.2538 0.9656 -0.0573
vn -0.3533 0.9307 -0.0947
vn -0.2521 0.9660 -0.0567
vn 0.5426 -0.8372 -0.0683
vn 0.6447 -0.7526 -0.1339
vn 0.6434 -0.7539 -0.1330
vn -0.6447 -0.7526 -0.1339
vn -0.6434 -0.7539 -0.1330
vn -0.8509 -0.4732 -0.2280
vn 0.8509 -0.4732 -0.2280
vn -0.5426 -0.8372 -0.0683
vn 0.0000 0.9998 -0.0191
vn -0.2654 0.0000 -0.9641
vn 0.2672 0.0000 -0.9636
vn -0.0000 0.0043 1.0000
vn -0.2688 0.0052 0.9632
vn -0.2742 -0.0011 0.9617
vn -0.0000 -0.0027 1.0000
vn -0.2750 -0.0045 0.9614
vn 0.0000 -0.0143 0.9999
vn -0.2909 -0.0039 0.9567
vn 0.0000 -0.0117 0.9999
vn 0.0000 0.0106 0.9999
vn 0.2909 -0.0039 0.9567
vn 0.2588 0.0000 -0.9659
vn -0.2580 0.0000 0.9661
vn -0.2773 0.0075 0.9608
vn -0.2588 -0.0000 0.9659
vn 0.2750 -0.0045 0.9614
vn 0.2773 0.0075 0.9608
vn 0.2580 0.0000 0.9661
vn 0.2742 -0.0011 0.9617
vn 0.2588 -0.0000 0.9659
vn 0.0000 0.0157 0.9999
vn -0.2586 -0.0001 0.9660
vn 0.2688 0.0052 0.9632
vn 0.2586 -0.0001 0.9660
vn 0.0000 -0.0033 1.0000
vn 0.2851 0.0353 0.9578
vn 0.2791 -0.0030 0.9603
vn 0.0000 -0.0061 1.0000
vn -0.2851 0.0353 0.9578
vn -0.2791 -0.0030 0.9603
usemtl hexagons_medieval
s 1
f 29/1/1 19/2/2 18/3/3
f 17/4/4 4/5/5 40/6/5 37/7/4
f 4/8/6 21/9/7 41/10/8 40/11/6
f 20/12/9 23/13/10 26/14/10 30/15/11
f 34/16/12 39/17/13 2/18/13 12/19/12
f 20/20/14 2/21/15 39/22/15 43/23/16
f 5/24/17 18/25/18 36/26/19 38/27/17
f 11/28/20 32/29/21 33/30/22 13/31/22
f 13/31/22 33/30/22 34/16/12 12/19/12
f 36/26/19 18/25/18 19/32/23 35/33/23
f 35/33/23 19/32/23 17/4/4 37/7/4
f 11/28/20 5/24/24 38/27/24 32/29/21
f 28/34/1 17/35/2 19/2/2 29/1/1
f 7/36/10 18/3/3 5/37/10
f 20/20/14 43/23/16 42/38/25 23/39/25
f 23/39/25 42/38/25 41/10/8 21/9/7
f 21/40/26 4/41/2 17/35/2 28/34/1
f 30/15/11 26/14/10 22/42/10 31/43/11
f 31/43/11 22/42/10 7/36/10 11/44/27
f 11/44/27 7/36/10 5/37/10
f 44/45/28 1/46/29 8/47/30 45/48/31
f 45/48/31 8/47/30 10/49/32 46/50/33
f 46/50/33 10/49/32 9/51/34 47/52/35
f 6/53/36 14/54/37 47/55/35
f 26/14/10 28/34/1 29/1/1 22/42/10
f 23/13/10 21/40/26 28/34/1 26/14/10
f 22/42/10 29/1/1 18/3/3 7/36/10
f 12/56/38 30/15/11 31/43/11 13/57/38
f 2/58/38 20/12/9 30/15/11 12/56/38
f 13/57/38 31/43/11 11/44/27
f 9/59/34 10/60/32 33/61/39 32/62/40
f 10/60/32 8/63/30 34/64/41 33/61/39
f 16/65/42 14/66/37 36/67/43 35/68/44
f 15/69/45 16/65/42 35/68/44 37/70/46
f 6/71/36 9/59/34 32/62/40 38/72/47
f 8/63/30 1/73/29 39/74/48 34/64/41
f 14/66/37 6/71/36 38/72/47 36/67/43
f 3/75/49 15/69/45 37/70/46 40/76/50
f 27/77/51 24/78/52 41/79/53 42/80/54
f 25/81/55 27/77/51 42/80/54 43/82/56
f 1/73/29 25/81/55 43/82/56 39/74/48
f 24/78/52 3/75/49 40/76/50 41/79/53
f 44/83/28 3/84/49 24/85/52
f 16/86/42 46/87/33 47/55/35 14/54/37
f 15/88/45 45/89/31 46/87/33 16/86/42
f 3/84/49 44/83/28 45/89/31 15/88/45
f 44/45/28 27/90/51 25/91/55
f 9/51/34 6/92/36 47/52/35
f 1/46/29 44/45/28 25/91/55
f 27/93/51 44/83/28 24/85/52
