# Blender v3.4.1 OBJ File: 'Medieval_Hexagons_Export_1.0_WorldOrigin.blend'
# www.blender.org
mtllib spear_yellow_full.mtl
o spear_yellow_full_spear_yellow_full0
v -0.000003 0.185690 -0.000574
v -0.000003 0.409382 0.001096
v 0.003289 -0.180871 0.004096
v 0.003324 -0.180871 -0.004421
v 0.005699 -0.180871 -0.002321
v -0.005699 -0.180871 -0.002321
v -0.003324 -0.180871 -0.004421
v -0.005699 -0.180871 0.001918
v -0.003289 -0.180871 0.004096
v -0.011279 0.140032 0.004718
v -0.005437 0.140032 0.009883
v -0.005437 0.140032 -0.009794
v -0.011279 0.140032 -0.004515
v 0.005437 0.140032 0.009883
v 0.011279 0.140032 0.004718
v 0.011279 0.140032 -0.004515
v 0.005437 0.140032 -0.009794
v 0.005699 -0.180871 0.001918
v -0.008266 -0.024648 0.014861
v -0.005200 -0.033533 0.009321
v -0.008266 0.024648 0.014938
v -0.005200 0.033534 0.009383
v -0.017149 -0.024648 -0.007138
v -0.010789 -0.033533 -0.004522
v -0.017149 0.024648 -0.007018
v -0.010789 0.033534 -0.004427
v 0.008267 -0.024648 -0.015056
v 0.005201 -0.033533 -0.009501
v 0.008267 0.024648 -0.014979
v 0.005201 0.033534 -0.009439
v 0.017149 -0.024648 0.006899
v 0.010789 -0.033533 0.004309
v 0.017149 0.024648 0.007019
v 0.010789 0.033534 0.004404
v 0.008267 0.024648 0.014938
v 0.005201 0.033534 0.009383
v 0.008267 -0.024648 0.014861
v 0.005201 -0.033533 0.009321
v 0.017149 0.024648 -0.007018
v 0.010789 0.033534 -0.004427
v 0.017149 -0.024648 -0.007138
v 0.010789 -0.033533 -0.004522
v -0.008266 0.024648 -0.014979
v -0.005200 0.033534 -0.009439
v -0.008266 -0.024648 -0.015056
v -0.005200 -0.033533 -0.009501
v -0.017149 0.024648 0.007019
v -0.010789 0.033534 0.004404
v -0.017149 -0.024648 0.006899
v -0.010789 -0.033533 0.004309
v -0.005375 0.000000 0.009668
v -0.011152 0.000000 0.004505
v 0.005376 0.000000 0.009668
v -0.005375 0.000000 -0.009786
v -0.011152 0.000000 -0.004623
v 0.011152 0.000000 -0.004623
v 0.005376 0.000000 -0.009786
v 0.011152 0.000000 0.004505
v -0.009384 0.154273 0.016878
v -0.013693 0.188369 0.024758
v 0.000000 0.196630 -0.000008
v -0.019468 0.154273 -0.008094
v -0.028407 0.188369 -0.011611
v 0.009385 0.154273 -0.017084
v 0.013694 0.188369 -0.024798
v 0.019468 0.154273 0.007840
v 0.028407 0.188369 0.011641
v 0.013694 0.188369 0.024758
v 0.009385 0.154273 0.016878
v 0.028407 0.188369 -0.011611
v 0.019468 0.154273 -0.008094
v -0.013693 0.188369 -0.024798
v -0.009384 0.154273 -0.017084
v -0.028407 0.188369 0.011641
v -0.019468 0.154273 0.007840
v -0.007174 0.172051 0.012923
v -0.014883 0.172051 0.006032
v 0.007175 0.172051 0.012923
v -0.007174 0.172051 -0.013041
v -0.014883 0.172051 -0.006150
v 0.014883 0.172051 -0.006150
v 0.007175 0.172051 -0.013041
v 0.014883 0.172051 0.006032
v 0.021011 0.204494 0.008608
v 0.010129 0.204494 0.018303
v 0.010129 0.204494 -0.018351
v 0.021011 0.204494 -0.008590
v -0.021011 0.204494 -0.008590
v -0.010128 0.204494 -0.018351
v -0.021011 0.204494 0.008608
v -0.010128 0.204494 0.018303
v 0.005437 -0.170362 0.009676
v -0.005437 -0.170362 0.009676
v 0.011279 -0.170362 -0.004836
v 0.011279 -0.170362 0.004396
v -0.005437 -0.170362 -0.010001
v 0.005437 -0.170362 -0.010001
v -0.011279 -0.170362 0.004396
v -0.011279 -0.170362 -0.004836
v 0.000000 -0.183084 -0.000182
v -0.000003 0.243344 0.026447
v -0.000003 0.219790 0.021273
v -0.032841 0.219808 0.000461
v -0.040448 0.243372 0.000818
v -0.000003 0.219826 -0.020344
v -0.000003 0.243400 -0.024811
v 0.032835 0.219808 0.000461
v 0.040442 0.243372 0.000818
vt 0.329580 0.126002
vt 0.329580 0.178796
vt 0.329580 0.150132
vt 0.329580 0.088045
vt 0.329580 0.140831
vt 0.329580 0.169499
vt 0.329580 0.169499
vt 0.329580 0.140846
vt 0.307801 0.120014
vt 0.307800 0.120014
vt 0.307800 0.126629
vt 0.307800 0.126629
vt 0.314358 0.120014
vt 0.314357 0.120014
vt 0.314358 0.126629
vt 0.314358 0.126629
vt 0.312660 0.120014
vt 0.309499 0.120014
vt 0.309499 0.126629
vt 0.312660 0.126629
vt 0.284635 0.143321
vt 0.284635 0.162007
vt 0.284635 0.162007
vt 0.284635 0.143321
vt 0.289091 0.143321
vt 0.289091 0.162007
vt 0.297387 0.162007
vt 0.297387 0.143321
vt 0.301844 0.143321
vt 0.301844 0.162007
vt 0.301844 0.162007
vt 0.301844 0.143321
vt 0.329580 0.178796
vt 0.329580 0.150139
vt 0.329580 0.173221
vt 0.329580 0.159032
vt 0.329580 0.194331
vt 0.329580 0.194331
vt 0.329580 0.159032
vt 0.284635 0.143321
vt 0.284635 0.162007
vt 0.284635 0.162007
vt 0.284635 0.143321
vt 0.312660 0.106784
vt 0.312660 0.113399
vt 0.309499 0.113399
vt 0.309499 0.106784
vt 0.314358 0.113399
vt 0.314357 0.113399
vt 0.314358 0.106784
vt 0.314358 0.106784
vt 0.307801 0.113399
vt 0.307800 0.106784
vt 0.307800 0.113399
vt 0.307800 0.106784
vt 0.289091 0.124634
vt 0.284635 0.124635
vt 0.309498 0.113399
vt 0.309499 0.106784
vt 0.297387 0.143321
vt 0.297387 0.162007
vt 0.289091 0.162007
vt 0.289091 0.143321
vt 0.309498 0.120014
vt 0.309499 0.126629
vt 0.301844 0.124634
vt 0.297387 0.124634
vt 0.312660 0.113399
vt 0.312660 0.106784
vt 0.297387 0.124634
vt 0.301844 0.124635
vt 0.297387 0.187312
vt 0.301844 0.187312
vt 0.301844 0.194048
vt 0.297387 0.194048
vt 0.297387 0.092594
vt 0.301843 0.092594
vt 0.301844 0.099330
vt 0.297387 0.099330
vt 0.301844 0.187311
vt 0.297387 0.187312
vt 0.297387 0.194048
vt 0.301843 0.194048
vt 0.301844 0.092594
vt 0.297387 0.092594
vt 0.297387 0.099330
vt 0.301844 0.099330
vt 0.289091 0.187312
vt 0.284635 0.187312
vt 0.284635 0.194048
vt 0.289091 0.194048
vt 0.289091 0.092594
vt 0.284635 0.092594
vt 0.284635 0.099330
vt 0.289091 0.099330
vt 0.284635 0.099330
vt 0.284635 0.092594
vt 0.284635 0.194048
vt 0.284635 0.187312
vt 0.289091 0.099330
vt 0.289091 0.092594
vt 0.289091 0.194048
vt 0.289091 0.187312
vt 0.312660 0.120014
vt 0.312660 0.126629
vt 0.289091 0.124635
vt 0.284635 0.124634
vt 0.289091 0.143321
vt 0.289091 0.162007
vt 0.297387 0.162007
vt 0.297387 0.143321
vt 0.301844 0.143321
vt 0.301844 0.162007
vt 0.301844 0.162007
vt 0.301844 0.143321
vt 0.289091 0.124634
vt 0.284635 0.124635
vt 0.297387 0.143321
vt 0.297387 0.162007
vt 0.289091 0.162007
vt 0.289091 0.143321
vt 0.301844 0.124634
vt 0.297387 0.124634
vt 0.297387 0.124634
vt 0.301844 0.124635
vt 0.297387 0.187312
vt 0.301844 0.187312
vt 0.301844 0.194048
vt 0.297387 0.194048
vt 0.301844 0.099330
vt 0.301706 0.101325
vt 0.300007 0.101325
vt 0.297387 0.099330
vt 0.301844 0.187311
vt 0.297387 0.187312
vt 0.297387 0.194048
vt 0.301843 0.194048
vt 0.289091 0.099330
vt 0.296846 0.101325
vt 0.295148 0.101325
vt 0.284635 0.099330
vt 0.289091 0.187312
vt 0.284635 0.187312
vt 0.284635 0.194048
vt 0.289091 0.194048
vt 0.295148 0.101325
vt 0.284635 0.099330
vt 0.296846 0.101325
vt 0.289091 0.099330
vt 0.284635 0.194048
vt 0.284635 0.187312
vt 0.289091 0.194048
vt 0.289091 0.187312
vt 0.301844 0.099330
vt 0.301706 0.101325
vt 0.300007 0.101325
vt 0.297387 0.099330
vt 0.289091 0.124635
vt 0.284635 0.124634
vt 0.297049 0.194048
vt 0.300954 0.194048
vt 0.289432 0.194048
vt 0.285524 0.194048
vt 0.312736 0.106784
vt 0.312035 0.106784
vt 0.312736 0.106784
vt 0.310123 0.106784
vt 0.312736 0.106784
vt 0.312045 0.106784
vt 0.310113 0.106784
vt 0.309422 0.106784
vt 0.309422 0.106784
vt 0.309422 0.106784
vt 0.310113 0.106784
vt 0.312035 0.106784
vn -0.4806 -0.4395 -0.7589
vn -0.5174 -0.2551 -0.8168
vn -0.5130 -0.2842 -0.8100
vn 0.4806 -0.4395 -0.7589
vn 0.5130 -0.2842 -0.8100
vn 0.5174 -0.2551 -0.8168
vn -0.5129 -0.2867 0.8091
vn -0.4710 -0.4759 0.7428
vn -0.5086 -0.3127 0.8022
vn -1.0000 -0.0046 0.0000
vn -0.8696 -0.2956 0.3955
vn -0.8712 -0.2993 -0.3891
vn 1.0000 -0.0046 0.0000
vn 0.8712 -0.2993 -0.3891
vn 0.8696 -0.2956 0.3955
vn 0.3582 -0.0038 -0.9336
vn -0.3582 -0.0038 -0.9337
vn -0.3359 -0.2766 -0.9003
vn 0.3359 -0.2766 -0.9003
vn -1.0000 -0.0003 0.0000
vn -0.9716 -0.2364 0.0000
vn -1.0000 0.0003 0.0000
vn -0.3491 0.0016 -0.9371
vn -0.3616 0.1740 -0.9160
vn 0.3616 0.1740 -0.9159
vn 0.3491 0.0016 -0.9371
vn 1.0000 0.0003 0.0000
vn 0.9716 -0.2364 0.0000
vn 1.0000 -0.0003 0.0000
vn 0.4710 -0.4759 0.7428
vn 0.5129 -0.2867 0.8091
vn 0.5086 -0.3127 0.8022
vn -0.5307 0.1307 -0.8374
vn 0.5307 0.1307 -0.8374
vn 0.5308 0.1279 0.8378
vn -0.6776 -0.6675 0.3088
vn -0.6806 -0.6676 0.3017
vn -0.6823 -0.6664 -0.3008
vn -0.6783 -0.6662 -0.3101
vn 0.3483 -0.2409 0.9059
vn 0.3582 0.0030 0.9336
vn -0.3582 0.0030 0.9336
vn -0.3482 -0.2409 0.9059
vn 0.6691 -0.0038 -0.7431
vn 1.0000 0.0036 0.0000
vn 0.8864 -0.2430 0.3941
vn 0.8846 -0.2429 -0.3982
vn -0.6691 -0.0038 -0.7432
vn -0.6691 0.0030 0.7432
vn -0.8864 -0.2430 0.3941
vn -1.0000 0.0036 0.0000
vn -0.8846 -0.2429 -0.3982
vn -0.3606 -0.1731 -0.9165
vn -0.6477 0.2314 -0.7259
vn -0.6664 0.0012 -0.7456
vn -0.6637 0.0040 -0.7480
vn -0.3549 0.0041 -0.9349
vn -0.3443 -0.2402 -0.9076
vn 0.3491 -0.0016 0.9371
vn 0.3606 0.1731 0.9165
vn -0.3606 0.1731 0.9165
vn -0.3491 -0.0016 0.9371
vn -0.6637 -0.0051 0.7480
vn -0.3549 -0.0053 0.9349
vn -0.3337 -0.2679 0.9038
vn 0.6665 0.0012 -0.7455
vn 0.6478 0.2314 -0.7258
vn 0.3606 -0.1731 -0.9165
vn 0.3549 0.0041 -0.9349
vn 0.6637 0.0040 -0.7479
vn 0.3443 -0.2402 -0.9076
vn 0.3616 -0.1740 0.9159
vn 0.6494 0.2287 0.7253
vn 0.6665 -0.0012 0.7455
vn 0.6691 0.0030 0.7431
vn -0.6478 -0.2314 0.7258
vn -0.6664 -0.0012 0.7456
vn 0.7230 0.6119 0.3206
vn 0.7197 0.6118 0.3283
vn 0.2735 0.5759 0.7704
vn 0.2748 -0.5752 0.7705
vn 0.7205 -0.6112 0.3277
vn 0.7240 -0.6113 0.3196
vn 0.7240 0.6113 -0.3196
vn 0.2748 0.5753 -0.7704
vn 0.7205 0.6112 -0.3277
vn 0.7197 -0.6118 -0.3283
vn 0.2735 -0.5760 -0.7704
vn 0.7230 -0.6120 -0.3206
vn -0.7240 0.6113 -0.3196
vn -0.7205 0.6112 -0.3277
vn -0.2748 0.5753 -0.7705
vn -0.2735 -0.5760 -0.7704
vn -0.7197 -0.6118 -0.3283
vn -0.7230 -0.6120 -0.3206
vn -0.7240 -0.6113 0.3196
vn -0.7205 -0.6112 0.3277
vn -0.7197 0.6118 0.3283
vn -0.7230 0.6120 0.3206
vn -0.3616 -0.1740 0.9160
vn -0.2748 -0.5752 0.7705
vn -0.2735 0.5759 0.7704
vn 0.3549 -0.0053 0.9349
vn 0.3337 -0.2679 0.9038
vn 0.6638 -0.0051 0.7479
vn -0.6494 0.2287 0.7253
vn 0.6478 -0.2314 0.7258
vn 0.6494 -0.2287 -0.7253
vn -0.6493 -0.2287 -0.7253
vn 0.9716 0.2364 -0.0000
vn -0.9716 0.2364 0.0000
vn -0.2583 -0.6304 -0.7320
vn -0.2886 -0.6328 -0.7185
vn 0.2887 -0.6328 -0.7185
vn 0.2584 -0.6304 -0.7320
vn 0.6783 -0.6662 -0.3101
vn 0.6823 -0.6663 -0.3008
vn 0.6807 -0.6676 0.3017
vn 0.6776 -0.6675 0.3088
vn -0.3375 0.2486 -0.9079
vn -0.3629 -0.1259 -0.9233
vn -0.9055 -0.1299 -0.4039
vn -0.6455 0.2452 -0.7233
vn 0.2573 -0.6327 0.7303
vn 0.2872 -0.6351 0.7171
vn -0.2871 -0.6351 0.7171
vn -0.2573 -0.6327 0.7304
vn 0.6456 0.2452 -0.7233
vn 0.9055 -0.1299 -0.4039
vn 0.3629 -0.1259 -0.9233
vn 0.3375 0.2486 -0.9079
vn 0.3383 0.2440 0.9089
vn 0.3639 -0.1207 0.9236
vn 0.9071 -0.1278 0.4010
vn 0.6474 0.2409 0.7231
vn 0.3341 0.4129 0.8473
vn 0.8188 0.4441 0.3639
vn 0.8160 0.4440 0.3702
vn 0.3114 0.4116 0.8565
vn 0.8195 0.4437 -0.3628
vn 0.3353 0.4128 -0.8468
vn 0.3127 0.4115 -0.8561
vn 0.8167 0.4436 -0.3690
vn -0.3353 0.4128 -0.8468
vn -0.8194 0.4437 -0.3628
vn -0.8167 0.4436 -0.3691
vn -0.3127 0.4115 -0.8561
vn -0.9071 -0.1278 0.4010
vn -0.3639 -0.1207 0.9236
vn -0.8160 0.4440 0.3702
vn -0.8188 0.4441 0.3639
vn -0.3113 0.4116 0.8565
vn -0.3341 0.4129 0.8473
vn -0.3382 0.2440 0.9089
vn -0.6473 0.2409 0.7231
vn 0.9683 0.2497 -0.0000
vn -0.9683 0.2497 0.0000
vn -0.0000 1.0000 -0.0002
vn -0.1335 0.9353 -0.3278
vn -0.2995 0.9449 -0.1322
vn -0.2998 0.9449 0.1318
vn -0.1338 0.9354 0.3272
vn 0.1338 0.9354 0.3272
vn 0.2998 0.9449 0.1318
vn 0.2995 0.9449 -0.1322
vn 0.1335 0.9353 -0.3278
vn 0.6304 -0.7248 0.2781
vn 0.2597 -0.7122 0.6521
vn 0.0000 -1.0000 -0.0012
vn -0.2597 -0.7122 0.6521
vn 0.6288 -0.7249 -0.2815
vn 0.2566 -0.7119 -0.6537
vn -0.2566 -0.7119 -0.6537
vn -0.6304 -0.7248 0.2781
vn -0.6288 -0.7249 -0.2815
vn 0.5264 -0.1825 0.8304
vn 0.5284 -0.1580 -0.8341
vn -0.5284 -0.1580 -0.8341
vn -0.5264 -0.1825 0.8304
vn -0.5308 0.1279 0.8378
usemtl hexagons_medieval
s 1
f 1/1/1 103/2/2 105/3/3
f 1/4/4 105/5/5 107/6/6
f 103/7/7 1/4/8 102/8/9
f 26/9/10 48/10/10 10/11/11 13/12/12
f 34/13/13 40/14/13 16/15/14 15/16/15
f 30/17/16 44/18/17 12/19/18 17/20/19
f 52/21/20 47/22/21 25/23/21 55/24/22
f 54/25/23 43/26/24 29/27/25 57/28/26
f 56/29/27 39/30/28 33/31/28 58/32/29
f 1/1/30 107/33/31 102/34/32
f 2/35/33 106/36/33 104/37/33
f 2/35/34 108/38/34 106/36/34
f 2/35/35 101/39/35 108/38/35
f 77/40/36 74/41/37 63/42/38 80/43/39
f 92/44/40 38/45/41 20/46/42 93/47/43
f 40/14/44 30/17/16 17/20/19 16/15/14
f 42/48/45 32/49/45 95/50/46 94/51/47
f 44/18/17 26/9/48 13/12/12 12/19/18
f 20/46/42 50/52/49 98/53/50 93/47/43
f 50/52/51 24/54/51 99/55/52 98/53/50
f 54/25/23 45/56/53 23/57/54 55/24/55
f 24/54/56 46/58/57 96/59/58 99/55/52
f 53/60/59 35/61/60 21/62/61 51/63/62
f 48/10/63 22/64/64 11/65/65 10/11/11
f 56/29/66 41/66/67 27/67/68 57/28/26
f 28/68/69 42/48/70 94/51/47 97/69/71
f 53/60/59 37/70/72 31/71/73 58/32/74
f 32/49/75 38/45/41 92/44/40 95/50/46
f 51/63/62 21/62/61 47/22/76 52/21/77
f 46/58/57 28/68/69 97/69/71 96/59/58
f 35/72/60 33/73/78 34/74/79 36/75/80
f 38/76/81 32/77/82 31/78/83 37/79/72
f 39/80/84 29/81/25 30/82/85 40/83/86
f 42/84/87 28/85/88 27/86/68 41/87/89
f 43/88/24 25/89/90 26/90/91 44/91/92
f 46/92/93 24/93/94 23/94/95 45/95/53
f 49/96/96 23/94/95 24/93/94 50/97/97
f 48/98/98 26/90/91 25/89/90 47/99/99
f 19/100/100 49/96/96 50/97/97 20/101/101
f 22/102/102 48/98/98 47/99/99 21/103/61
f 45/95/53 27/86/68 28/85/88 46/92/93
f 44/91/92 30/82/85 29/81/25 43/88/24
f 41/87/89 31/78/83 32/77/82 42/84/87
f 40/83/86 34/74/79 33/73/78 39/80/84
f 37/79/72 19/100/100 20/101/101 38/76/81
f 22/64/64 36/104/103 14/105/104 11/65/65
f 36/75/80 22/102/102 21/103/61 35/72/60
f 36/104/103 34/13/105 15/16/15 14/105/104
f 19/106/100 51/63/62 52/21/77 49/107/106
f 35/61/60 53/60/59 58/32/74 33/31/107
f 39/30/108 56/29/66 57/28/26 29/27/25
f 37/70/72 53/60/59 51/63/62 19/106/100
f 43/26/24 54/25/23 55/24/55 25/23/109
f 41/66/110 56/29/27 58/32/29 31/71/110
f 45/56/53 54/25/23 57/28/26 27/67/68
f 49/107/111 52/21/20 55/24/22 23/57/111
f 79/108/112 72/109/113 65/110/114 82/111/115
f 81/112/116 70/113/117 67/114/118 83/115/119
f 79/108/120 73/116/121 62/117/122 80/43/123
f 78/118/124 68/119/125 60/120/126 76/121/127
f 81/112/128 71/122/129 64/123/130 82/111/131
f 78/118/132 69/124/133 66/125/134 83/115/135
f 76/121/127 60/120/126 74/41/37 77/40/36
f 68/126/136 67/127/137 84/128/138 85/129/139
f 71/130/129 16/131/14 17/132/19 64/133/130
f 70/134/140 65/135/141 86/136/142 87/137/143
f 73/138/121 12/139/18 13/140/12 62/141/122
f 72/142/144 63/143/145 88/144/146 89/145/147
f 62/141/122 13/140/12 10/146/11 75/147/148
f 75/147/148 10/146/11 11/148/65 59/149/149
f 90/150/150 88/144/146 63/143/145 74/151/151
f 64/133/130 17/132/19 12/139/18 73/138/121
f 91/152/152 90/150/150 74/151/151 60/153/153
f 66/154/134 15/155/15 16/131/14 71/130/129
f 89/145/147 86/136/142 65/135/141 72/142/144
f 59/149/149 11/148/65 14/156/104 69/157/133
f 87/137/143 84/128/138 67/127/137 70/134/140
f 85/129/139 91/152/152 60/153/153 68/126/136
f 59/158/149 76/121/154 77/40/155 75/159/148
f 68/119/125 78/118/124 83/115/119 67/114/118
f 70/113/117 81/112/116 82/111/115 65/110/114
f 69/124/133 78/118/132 76/121/154 59/158/149
f 72/109/113 79/108/112 80/43/39 63/42/38
f 71/122/129 81/112/156 83/115/156 66/125/134
f 73/116/121 79/108/120 82/111/131 64/123/130
f 75/159/148 77/40/157 80/43/157 62/117/122
f 69/157/133 14/156/104 15/155/15 66/154/134
f 61/160/158 85/129/159 84/128/160
f 61/161/158 87/137/161 86/136/162
f 61/162/158 89/145/163 88/144/164
f 61/163/158 88/144/164 90/150/165
f 61/163/158 90/150/165 91/152/166
f 61/160/158 86/136/162 89/145/163
f 61/161/158 84/128/160 87/137/161
f 61/162/158 91/152/166 85/129/159
f 18/164/167 3/165/168 100/166/169
f 9/167/170 3/165/168 92/44/40 93/47/43
f 18/164/167 5/168/171 94/51/47 95/50/46
f 4/169/172 7/170/173 96/59/58 97/69/71
f 8/171/174 9/167/170 93/47/43 98/53/50
f 7/170/173 6/172/175 99/55/52 96/59/58
f 5/168/171 4/169/172 97/69/71 94/51/47
f 3/165/168 18/164/167 95/50/46 92/44/40
f 6/172/175 8/171/174 98/53/50 99/55/52
f 6/172/175 7/170/173 100/173/169
f 7/170/173 4/169/172 100/174/169
f 3/165/168 9/167/170 100/175/169
f 8/171/174 6/172/175 100/173/169
f 4/169/172 5/168/171 100/175/169
f 9/167/170 8/171/174 100/174/169
f 5/168/171 18/164/167 100/166/169
f 108/38/176 101/39/176 102/34/32 107/33/31
f 106/36/177 108/38/177 107/6/6 105/5/5
f 104/37/178 106/36/178 105/3/3 103/2/2
f 101/39/179 104/37/179 103/7/7 102/8/9
f 101/39/180 2/35/180 104/37/180
